<?xml version="1.0" encoding="UTF-8" standalone="no"?>
<!-- Created with Inkscape (http://www.inkscape.org/) -->

<svg
   xmlns:dc="http://purl.org/dc/elements/1.1/"
   xmlns:cc="http://creativecommons.org/ns#"
   xmlns:rdf="http://www.w3.org/1999/02/22-rdf-syntax-ns#"
   xmlns:svg="http://www.w3.org/2000/svg"
   xmlns="http://www.w3.org/2000/svg"
   xmlns:sodipodi="http://sodipodi.sourceforge.net/DTD/sodipodi-0.dtd"
   xmlns:inkscape="http://www.inkscape.org/namespaces/inkscape"
   width="210mm"
   height="297mm"
   viewBox="0 0 210 297"
   version="1.1"
   id="svg7591"
   inkscape:version="0.92.2 (5c3e80d, 2017-08-06)"
   sodipodi:docname="face.svg">
  <defs
     id="defs7585" />
  <sodipodi:namedview
     id="base"
     pagecolor="#ffffff"
     bordercolor="#666666"
     borderopacity="1.0"
     inkscape:pageopacity="0.0"
     inkscape:pageshadow="2"
     inkscape:zoom="2.8"
     inkscape:cx="347.97168"
     inkscape:cy="135.68244"
     inkscape:document-units="mm"
     inkscape:current-layer="layer1"
     showgrid="false"
     inkscape:window-width="1920"
     inkscape:window-height="1039"
     inkscape:window-x="0"
     inkscape:window-y="0"
     inkscape:window-maximized="1" />
  <metadata
     id="metadata7588">
    <rdf:RDF>
      <cc:Work
         rdf:about="">
        <dc:format>image/svg+xml</dc:format>
        <dc:type
           rdf:resource="http://purl.org/dc/dcmitype/StillImage" />
        <dc:title></dc:title>
      </cc:Work>
    </rdf:RDF>
  </metadata>
  <g
     inkscape:label="Layer 1"
     inkscape:groupmode="layer"
     id="layer1">
    <path
       style="opacity:0.25;fill:#000000;stroke-width:1.09436071"
       d="m 94.973645,278.02578 c -6.00621,-1.51392 -13.278212,-4.96291 -17.674915,-8.38298 -5.817808,-4.52546 -14.686078,-15.57023 -16.156157,-20.35966 -0.699321,-2.27835 2.698815,-6.67351 -2.23051,-4.10386 -1.388344,0.72374 -2.347027,-3.62316 -0.965506,-4.47699 0.970965,-0.60011 0.690244,-1.50924 -1.040659,-3.3706 -1.303637,-1.40187 -3.362662,-3.73223 -4.575593,-5.17861 l -2.205363,-2.62977 v 4.11482 c 0,3.33433 0.334616,3.98644 1.763413,3.43811 1.29065,-0.49527 1.584028,-0.20929 1.094347,1.0668 -0.368118,0.95889 -0.669025,2.00604 -0.669025,2.32697 0,0.32096 -1.185549,-0.19316 -2.634614,-1.1427 -2.375814,-1.55673 -2.698642,-1.55938 -3.286598,-0.029 -0.358605,0.93453 -0.37515,2.14717 -0.03722,2.69476 1.507384,2.43905 -1.550732,0.64598 -4.832656,-2.83348 -2.74203,-2.90711 -4.213224,-3.67792 -6.110773,-3.20164 -3.582624,0.89916 -4.474878,-3.29016 -1.701743,-7.99025 1.162718,-1.97068 1.679201,-3.583 1.147786,-3.583 -0.531456,0 -1.186129,0.61555 -1.454814,1.36796 -1.068248,2.99098 -1.642389,-5e-4 -0.840179,-4.37747 0.468834,-2.55806 0.655003,-4.65104 0.413699,-4.65104 -0.241139,0 -1.775656,0.79067 -3.409732,1.757 -1.634034,0.96633 -2.201764,1.08947 -1.261613,0.27382 2.09745,-1.82016 3.511688,-5.31365 2.151137,-5.31365 -0.547504,0 -1.29979,0.49245 -1.671797,1.09434 -0.371841,0.6019 -1.413411,1.09435 -2.314309,1.09435 -1.092279,0 -0.685074,-0.82037 1.222196,-2.4623 l 2.860242,-2.46234 -2.822934,-0.15925 c -3.453203,-0.19481 -6.088065,-2.23572 -5.972128,-4.62572 0.05501,-1.13414 0.28705,-1.2842 0.638376,-0.4132 0.776482,1.92431 3.652648,1.7089 3.652648,-0.2734 0,-0.97275 -1.003144,-1.64157 -2.462301,-1.64157 -2.893621,-4e-5 -8.752046,-6.74836 -8.332721,-9.59851 0.329238,-2.23655 -3.627791,-10.18084 -6.0875691,-12.22229 -2.3364378,-1.93911 -2.3215062,-6.00261 0.020681,-5.10456 0.9571911,0.36729 2.1777741,0.39748 2.7124151,0.067 1.335155,-0.82516 -2.7864939,-11.33198 -5.1125913,-13.03285 -1.1082858,-0.81044 -1.6055358,-2.10482 -1.2072643,-3.14275 0.3726686,-0.97059 0.1728918,-2.07652 -0.4439761,-2.45766 -0.6166197,-0.38094 -0.8448534,-1.413 -0.5071354,-2.29309 0.3379248,-0.88006 -0.1071267,-2.99463 -0.9884198,-4.69902 -2.84423494,-5.50015 -3.1257838,-11.06975 -0.8597436,-17.00817 1.1484067,-3.00947 1.8888219,-6.35724 1.6453258,-7.43951 -0.2436202,-1.08223 0.033089,-2.55963 0.6182742,-3.28308 0.5835717,-0.72346 1.4210214,-3.49606 1.8610268,-6.16132 0.4549783,-2.75572 2.464204,-7.2136 4.6581917,-10.33496 3.557807,-5.06178 3.914758,-6.30601 4.586058,-15.986158 0.400381,-5.773443 1.063036,-11.039276 1.472517,-11.701848 0.40948,-0.662581 0.01241,-1.813246 -0.884933,-2.557049 -2.559088,-2.123847 -1.919264,-4.448195 1.589032,-5.772426 3.564425,-1.345416 4.716388,-4.063614 4.969977,-11.727335 0.160483,-4.850193 0.216321,-4.920322 3.698932,-4.639923 3.825954,0.308021 8.222741,-1.469112 7.305711,-2.952937 -0.311867,-0.504269 1.767508,-1.253602 4.620347,-1.665167 8.647484,-1.247452 10.111563,-1.812667 10.111563,-3.903619 0,-1.089458 -1.723996,-3.046316 -3.831083,-4.348563 -4.102457,-2.535458 -7.112511,-6.139187 -7.112511,-8.515286 0,-0.824851 0.549573,-1.122965 1.260373,-0.683667 0.693221,0.42842 1.84808,-0.02482 2.566408,-1.00714 1.17856,-1.611786 1.554786,-1.521295 3.854991,0.927163 1.401953,1.492304 2.862516,2.713272 3.245691,2.713272 0.383009,0 1.327792,-2.462314 2.099104,-5.471806 1.350128,-5.267925 1.546306,-5.471792 5.265506,-5.471792 3.036815,0 3.611701,-0.302975 2.687681,-1.416331 -0.872152,-1.050884 -0.489267,-2.250981 1.483933,-4.651037 l 2.659431,-3.234697 -0.697482,3.742056 -0.697441,3.742068 4.004099,-3.194886 c 2.4896,-1.986452 4.004099,-4.132122 4.00414,-5.672794 0,-2.105619 0.454813,-2.397802 3.027054,-1.94464 1.664848,0.293296 4.964806,1.475846 7.333217,2.62786 3.281593,1.596188 4.884854,1.830928 6.738063,0.986554 2.400259,-1.093627 4.311954,-5.5151975 3.1779,-7.3501457 -0.786244,-1.2721939 5.686857,-6.6198851 7.987558,-6.5988279 1.007115,0.00869 2.56985,0.4837164 3.47269,1.0544495 1.6471,1.0411973 1.79898,1.4479355 2.05195,5.4949594 0.0869,1.3899795 0.91194,2.1887229 2.26091,2.1887229 1.1683,0 2.42851,0.4924608 2.80052,1.0943598 1.06059,1.716099 6.01895,1.318539 6.01895,-0.482592 0,-1.9942856 1.8166,-3.1596506 3.39993,-2.1811038 0.8767,0.5418378 0.86338,0.9635407 -0.0484,1.5269941 -0.69272,0.4281347 0.48584,0.8440467 2.61907,0.9242427 3.23125,0.121479 3.8786,-0.22964 3.8786,-2.1036913 0,-1.9223538 0.59681,-2.2065498 4.10387,-1.9541319 2.2571,0.1624686 5.46768,-0.097159 7.13455,-0.577049 5.83489,-1.6796022 12.5665,3.2497489 14.31209,10.4802812 0.41478,1.71811 2.27171,3.824734 4.5631,5.176698 2.12508,1.253808 4.18374,3.11352 4.57481,4.1327 0.39087,1.019177 1.73363,2.875575 2.98342,4.125355 l 2.27237,2.272319 -2.35104,0.335112 -2.35104,0.335112 2.35104,2.482966 c 1.29309,1.365617 3.22596,3.574966 4.29532,4.909649 2.00253,2.499378 4.66473,2.166561 3.65786,-0.457299 -0.34578,-0.901175 -0.004,-1.259425 0.87853,-0.920773 0.79451,0.304877 1.74707,-0.2339 2.11676,-1.197275 0.53295,-1.388832 1.12884,-1.507218 2.87712,-0.571571 3.00976,1.610774 2.7764,5.427327 -0.63966,10.461178 -2.66365,3.925111 -2.723,4.280681 -0.93312,5.589471 1.05129,0.768732 2.28647,1.165919 2.74484,0.882633 0.82513,-0.509952 3.91575,2.794821 8.14623,8.710643 1.20379,1.683354 2.80432,3.709608 3.55669,4.502768 0.75236,0.793159 1.36795,2.635408 1.36795,4.09387 0,2.865321 5.64657,9.542542 8.06962,9.542542 0.81644,0 2.8049,-1.038658 4.41875,-2.308126 l 2.93432,-2.308118 -0.67428,3.128886 -0.67423,3.128899 2.29234,-2.617337 c 1.26079,-1.439544 2.54006,-2.369652 2.84279,-2.066909 1.03247,1.032474 -1.62039,6.271429 -4.39906,8.687497 -1.52476,1.32574 -2.77227,2.992036 -2.77227,3.702866 0,0.78849 -1.0668,1.088506 -2.73591,0.769434 -3.32754,-0.636097 -3.40526,0.262357 -0.4429,5.121575 1.73781,2.850613 2.33516,5.817645 2.49506,12.393285 0.11582,4.75499 -0.14311,8.8639 -0.5753,9.13093 -0.43206,0.2672 -0.50295,2.22704 -0.15758,4.35555 0.34537,2.12851 0.0972,4.95116 -0.5514,6.2725 -0.64867,1.32138 -1.44178,4.12611 -1.7625,6.23274 -0.32055,2.10664 -0.89817,5.68219 -1.28329,7.94566 -0.57774,3.39559 -0.2006,4.77057 2.15677,7.86112 3.67026,4.81193 3.82537,10.91741 0.39459,15.53705 -3.8617,5.19999 -6.075,7.10184 -6.83456,5.87282 -0.37474,-0.60648 -1.17401,-1.10274 -1.77591,-1.10274 -0.60351,0 -0.70952,0.61352 -0.23617,1.36795 0.47193,0.75237 0.71129,2.25914 0.53195,3.34835 -0.17951,1.08918 0.13318,2.56658 0.69409,3.28309 0.56111,0.71646 1.32341,2.90317 1.69401,4.85937 0.50333,2.65679 0.28126,3.55665 -0.87745,3.55665 -1.04264,0 -1.66158,1.52492 -1.88775,4.65104 -0.30566,4.22497 -0.59254,4.63486 -3.13132,4.47442 -2.57617,-0.16297 -2.77798,0.15221 -2.58002,4.0292 0.2006,3.9249 0.0207,4.18982 -2.67701,3.96526 -1.59048,-0.13235 -3.55549,0.40659 -4.36672,1.1978 -1.2351,1.20453 -1.15105,1.92307 0.51694,4.41908 1.09555,1.63937 1.88241,3.35004 1.74853,3.80147 -0.41933,1.41419 2.82818,0.89295 3.40931,-0.54718 0.3036,-0.75241 0.59086,0.0438 0.63838,1.76916 0.0707,2.57175 0.47744,3.03488 2.25611,2.56972 1.84564,-0.48261 2.00336,-0.25644 1.05588,1.51392 -0.61265,1.14473 -1.87041,2.08128 -2.79509,2.08128 -0.92469,0 -2.41991,0.73872 -3.32275,1.64156 -0.90284,0.90284 -3.28983,1.64152 -5.30439,1.64152 -2.97829,0 -4.08856,0.68888 -5.94081,3.68586 -2.74328,4.43873 -2.80573,5.06904 -0.50242,5.06904 2.87471,0 -0.21964,2.95351 -3.72586,3.55644 -1.6359,0.28126 -3.90893,0.90797 -5.05126,1.39261 -2.56686,1.08897 -2.33139,-0.24776 2.51004,-14.25112 1.87285,-5.41706 3.91484,-11.94219 4.53774,-14.50029 0.8353,-3.43053 1.67494,-4.65103 3.19962,-4.65103 3.01837,0 6.26803,-4.75353 7.64773,-11.18693 0.66365,-3.09451 1.61902,-6.15242 2.12305,-6.79539 1.28759,-1.64251 2.18841,-7.24544 1.05199,-6.54308 -0.51495,0.31807 -0.93626,1.25338 -0.93626,2.07809 0,0.82467 -2.18935,2.97697 -4.86521,4.7829 l -4.8652,3.28349 -1.20896,-3.66315 c -0.77653,-2.35286 -0.98846,-8.88217 -0.59255,-18.25344 0.62928,-14.89442 -0.35943,-20.73262 -2.5399,-14.99766 -1.24225,3.26741 -4.59056,4.7817 -14.29724,6.46603 -8.38607,1.45514 -24.72914,0.41486 -28.23256,-1.79712 -1.64305,-1.03735 -3.26372,-4.28181 -5.001,-10.01147 -2.44468,-8.06267 -2.75961,-8.52443 -6.44754,-9.45383 -4.80134,-1.20991 -9.54714,-0.11912 -10.34405,2.37767 -0.33048,1.03537 -2.30616,5.45288 -4.390382,9.81666 l -3.789474,7.93408 -7.327177,-0.15428 -7.327137,-0.15428 5.471776,-0.76408 c 3.009516,-0.42023 6.266913,-1.11668 7.238705,-1.54767 1.964804,-0.87132 4.754359,-6.13497 3.251358,-6.13497 -1.330067,0 -2.33288,-2.97233 -1.6251,-4.81677 0.323862,-0.84353 1.539399,-1.78236 2.701538,-2.08624 1.16218,-0.30401 2.113043,-1.33739 2.113043,-2.29657 0,-2.41986 -1.897094,-2.18133 -3.537084,0.44473 -1.17554,1.88232 -2.552056,2.18869 -9.833529,2.18869 -6.269023,0 -10.277754,0.68172 -15.444116,2.62634 -8.24156,3.10208 -12.053368,2.19833 -6.114826,-1.44981 2.057164,-1.26372 5.710102,-2.87662 8.117682,-3.58419 l 4.377471,-1.28652 -3.830256,-0.66062 c -3.458828,-0.59652 -3.591475,-0.74294 -1.367954,-1.50975 2.590605,-0.89333 2.882825,-1.61538 1.798033,-4.44236 -1.224306,-3.19052 -14.779889,-1.76429 -18.489534,1.94536 -2.220294,2.22033 -2.210657,13.62466 0.01241,16.80111 0.909295,1.29822 1.255119,2.60644 0.768499,2.90719 -1.625844,1.00484 -3.233737,-0.91319 -4.007531,-4.78059 -1.622619,-8.1097 -1.819914,-8.34388 -3.610667,-4.28618 -1.517849,3.43943 -2.163629,10.32189 -2.779173,29.62025 -0.127808,4.0024 -0.601481,7.05121 -1.052903,6.77516 -0.823759,-0.50374 -1.256857,2.80122 -0.860777,6.56861 0.188609,1.79604 -0.366465,1.93874 -5.072181,1.30376 -4.973163,-0.67101 -11.303193,-4.82389 -11.303193,-7.41553 0,-0.52231 -0.996527,-3.13716 -2.214504,-5.81073 -1.21777,-2.67362 -2.708941,-6.16211 -3.313524,-7.7523 -0.604584,-1.59015 -1.309014,-2.68139 -1.565415,-2.42499 -0.256443,0.25644 1.763165,6.11114 4.487989,13.01052 3.539524,8.96237 6.020438,13.55988 8.688431,16.10098 3.701538,3.5255 7.388394,4.57005 8.691038,2.4623 1.191175,-1.92733 2.735909,-1.1724 2.735909,1.3371 0,1.3373 1.037103,5.89255 2.304672,10.12285 1.267611,4.23023 2.495267,8.33818 2.728174,9.12869 0.232867,0.79054 0.919429,1.13083 1.525584,0.75621 0.606155,-0.37473 1.102082,0.11582 1.102082,1.08955 0,0.9739 0.492452,1.46636 1.094347,1.09439 0.601936,-0.37184 1.094388,0.29656 1.094388,1.48575 0,1.18915 0.433925,2.32627 0.964264,2.52691 0.530381,0.20061 3.684953,5.78187 7.010141,12.40275 3.32523,6.62089 7.666054,13.67723 9.646285,15.68083 4.534604,4.58808 14.913652,9.33442 25.621195,11.71664 9.954353,2.21463 30.185953,1.70241 37.400833,-0.94693 4.22708,-1.55222 4.6151,-1.53977 4.97474,0.15966 0.21466,1.01373 -0.0712,3.40009 -0.6347,5.30302 -1.51748,5.12322 -6.79539,7.08252 -20.0044,7.42615 -5.94413,0.15469 -13.02359,0.57588 -15.73212,0.93606 -2.70857,0.36026 -6.657288,0.21839 -8.775006,-0.31559 z m 82.644335,-59.11116 c -0.37184,-0.60189 -1.1688,-1.09439 -1.7707,-1.09439 -0.60189,0 -0.79,0.4925 -0.418,1.09439 0.37184,0.6019 1.1688,1.09435 1.7707,1.09435 0.60189,0 0.79,-0.49245 0.418,-1.09435 z M 38.087001,212.34846 c 0,-0.6019 -0.217148,-1.09439 -0.482607,-1.09439 -0.265542,0 -0.786948,0.49249 -1.158955,1.09439 -0.371842,0.60189 -0.154693,1.09434 0.482608,1.09434 0.637425,0 1.158954,-0.49245 1.158954,-1.09434 z M 21.124416,190.46123 c 0.371841,-0.6019 -0.09141,-1.09435 -1.029782,-1.09435 -0.938372,0 -1.706127,0.49245 -1.706127,1.09435 0,0.60189 0.463375,1.09434 1.029781,1.09434 0.566366,0 1.334121,-0.49245 1.706128,-1.09434 z m 163.384044,-1.04459 c -1.50999,-2.41784 -2.57315,-2.11648 -1.58821,0.45022 0.35654,0.92878 1.16012,1.68871 1.786,1.68871 0.72027,0 0.64768,-0.78512 -0.19771,-2.13893 z M 39.165011,184.93891 c -3.019858,-2.32027 -4.361093,-2.65968 -4.361093,-1.10357 0,1.14464 5.706381,4.29859 6.549828,3.62014 0.292013,-0.23494 -0.692974,-1.3673 -2.188735,-2.51657 z M 28.237754,173.49864 c 0,-0.90284 -0.492452,-1.64156 -1.094389,-1.64156 -0.601894,0 -1.094346,0.73872 -1.094346,1.64156 0,0.90285 0.492452,1.64152 1.094346,1.64152 0.601937,0 1.094389,-0.73867 1.094389,-1.64152 z m -10.943635,-5.40721 c 0,-0.26554 -0.492452,-0.78694 -1.094347,-1.15895 -0.601895,-0.37184 -1.094347,-0.15469 -1.094347,0.48261 0,0.63738 0.492452,1.15891 1.094347,1.15891 0.601895,0 1.094347,-0.21715 1.094347,-0.48257 z M 159.77137,157.02872 c 4.58353,-1.56178 4.98528,-2.01895 6.12926,-6.97499 1.8578,-8.04844 0.655,-13.15809 -3.49341,-14.84056 -4.91285,-1.99248 -14.17447,-2.95203 -17.20128,-1.78211 -2.48075,0.95885 -2.35484,1.12181 2.59073,3.35273 2.859,1.2897 5.19821,2.5739 5.19821,2.85379 0,0.28002 -1.95099,0.19689 -4.33553,-0.18447 -8.50636,-1.36022 -8.74609,0.49787 -0.57617,4.46524 4.17625,2.02805 7.94074,3.47252 8.36557,3.21 0.42478,-0.26265 1.11568,0.0782 1.53534,0.75721 0.91839,1.486 -1.41374,3.13868 -4.4616,3.16185 -1.21454,0.008 -4.10572,-1.27262 -6.42487,-2.8485 -3.47078,-2.35848 -5.87046,-2.96844 -13.56696,-3.44861 -8.63867,-0.53894 -9.29355,-0.43529 -8.60372,1.36241 0.41072,1.07019 0.20515,2.59842 -0.45697,3.39608 -2.95165,3.55653 2.15007,8.6994 9.49391,9.57043 6.94574,0.8238 20.54219,-0.25644 25.80749,-2.05063 z m -35.92848,-14.17216 c 0.34661,-0.90289 0.15304,-1.64157 -0.43008,-1.64157 -0.58303,0 -1.06002,0.73868 -1.06002,1.64157 0,0.90284 0.19358,1.64152 0.43008,1.64152 0.23659,0 0.71357,-0.73868 1.06002,-1.64152 z m 52.88114,-2.94111 c -0.34951,-0.87302 -0.60868,-0.61368 -0.66117,0.66117 -0.0476,1.15362 0.21136,1.80002 0.57476,1.43636 0.36357,-0.36356 0.40245,-1.30756 0.0865,-2.09753 z m -58.20153,-3.85826 c -3.33768,-0.80278 -4.1753,-2.07329 -3.40097,-5.1585 0.62771,-2.50101 1.25533,-2.81603 5.61055,-2.81603 3.62936,0 4.9038,-0.4266 4.9038,-1.64152 0,-0.90288 0.47925,-1.64156 1.06506,-1.64156 1.79716,0 10.97288,4.758 10.97288,5.68988 0,0.48194 3.8166,0.89775 8.48129,0.92394 4.66473,0.0248 10.56811,0.45142 13.1186,0.9449 l 4.6373,0.89726 -0.0881,-3.95438 c -0.0488,-2.17492 0.44029,-7.40163 1.08641,-11.61494 1.67895,-10.94784 1.48968,-18.644768 -0.62324,-25.347703 -1.32114,-4.191074 -2.39356,-5.841578 -3.79572,-5.841578 -1.10258,0 -3.91037,-2.647751 -6.44216,-6.074896 -2.46826,-3.341203 -5.5617,-6.464836 -6.87427,-6.94141 -1.31257,-0.476573 -8.06817,-1.483514 -15.01251,-2.237649 -13.33574,-1.448221 -20.8404,-0.57592 -22.63504,2.630974 -0.47368,0.84638 -2.26431,1.793297 -3.9792,2.104258 -1.71486,0.310957 -4.27188,1.321464 -5.682187,2.245542 -1.749143,1.14609 -3.350336,1.389346 -5.037313,0.765298 -1.360179,-0.503177 -4.069905,-0.55471 -6.021597,-0.11453 -2.246228,0.506601 -4.54056,0.285602 -6.251816,-0.602181 -2.239527,-1.161894 -3.231711,-1.128375 -5.783271,0.195393 -3.223893,1.672579 -7.106844,5.316132 -6.409031,6.013928 0.223766,0.22356 -0.511148,1.622871 -1.632587,3.109636 -2.731069,3.620672 -3.946192,2.102215 -1.784797,-2.230382 1.187659,-2.380695 1.279813,-3.090345 0.295322,-2.27325 -0.787236,0.653353 -2.369485,3.041994 -3.516072,5.308088 -1.146587,2.266094 -2.9033,5.105092 -3.903838,6.308891 -1.206024,1.451012 -2.398853,6.799391 -3.53907,15.868241 -0.945941,7.52372 -2.034125,15.5349 -2.41821,17.80264 -0.691856,4.085 -0.671713,4.11304 2.175665,3.03044 4.907645,-1.86586 23.3377,-2.74339 25.197651,-1.19978 0.893288,0.74137 2.190804,0.99777 2.883322,0.5698 0.915417,-0.56578 0.853829,-1.03499 -0.225834,-1.71903 -1.114118,-0.70592 -0.934485,-0.94499 0.719403,-0.95756 1.212269,-0.008 4.824962,-0.97469 8.028175,-2.14552 3.969066,-1.45072 5.658069,-1.69628 5.30298,-0.77098 -0.3007,0.78339 0.428093,1.42921 1.722589,1.52674 1.233986,0.0931 2.534186,0.61977 2.889276,1.1707 0.3553,0.5509 1.70311,1.3314 2.99554,1.73442 1.66816,0.52017 2.18675,1.35671 1.78752,2.88341 -0.30938,1.18286 -1.27273,2.15064 -2.14092,2.15064 -0.86818,0 -1.27414,0.49245 -0.90214,1.09439 0.37185,0.60189 4.21765,1.03722 8.5459,0.96741 4.32825,-0.0699 6.88461,-0.36399 5.68078,-0.65344 z m 11.00803,-3.08206 c 2.05717,-1.62084 2.04058,-1.66406 -0.52587,-1.36795 -1.45759,0.16834 -2.85292,0.92133 -3.10068,1.67369 -0.61306,1.86153 1.05427,1.72094 3.62655,-0.30566 z M 12.212011,126.23777 c 2.201185,-2.75754 4.345084,-6.91001 3.56765,-6.91001 -0.487157,0 -6.3747011,5.74196 -8.1951521,7.99249 -1.3017757,1.60929 -1.2498255,1.85676 0.3896269,1.85676 1.04037,0 2.9474322,-1.32266 4.2378332,-2.93924 z m -0.815239,-13.74974 1.819335,-3.55668 -2.338424,2.08475 c -1.2861406,1.14662 -2.3384228,2.74711 -2.3384228,3.55669 0,2.37991 0.915251,1.71216 2.8575118,-2.08476 z m 9.77976,-23.56784 c -0.878067,-0.878059 -2.748235,1.897446 -2.771273,4.112851 -0.01241,1.038505 0.606568,0.721521 1.736404,-0.891542 0.964223,-1.376653 1.429914,-2.826235 1.034869,-3.221309 z m -3.134843,-3.722786 c -0.349506,-0.873004 -0.608636,-0.613695 -0.661166,0.661183 -0.04757,1.153631 0.210945,1.799994 0.574803,1.436346 0.363569,-0.363652 0.402449,-1.307542 0.08645,-2.097529 z M 57.329483,28.495852 c 0.852712,0 1.550359,0.574538 1.550359,1.276756 0,0.702209 0.257683,1.018928 0.572942,0.703806 0.315176,-0.315094 0.262646,-1.382113 -0.117054,-2.371108 -0.823345,-2.145603 -5.927664,-2.437538 -5.927664,-0.339041 0,1.940946 1.49266,3.364974 1.98354,1.892333 0.213012,-0.639521 1.085247,-1.162755 1.937918,-1.162755 z m 95.118227,0 c 0.37184,-0.6019 -0.0914,-1.094352 -1.02978,-1.094352 -0.93838,0 -1.70613,0.492452 -1.70613,1.094352 0,0.601894 0.46341,1.094359 1.02978,1.094359 0.56637,0 1.33412,-0.492465 1.70613,-1.094359 z m 3.83025,0 c 0,-0.6019 -0.21715,-1.094352 -0.4826,-1.094352 -0.26555,0 -0.78695,0.492452 -1.15896,1.094352 -0.37184,0.601894 -0.15469,1.094359 0.48261,1.094359 0.63742,0 1.15895,-0.492465 1.15895,-1.094359 z M 66.540354,26.570387 c 0,-0.457112 -0.984904,-1.446219 -2.188694,-2.198 -2.368287,-1.479031 -2.535512,-1.336652 -1.524467,1.298066 0.664103,1.730621 3.713161,2.469589 3.713161,0.899934 z m 2.188735,-5.700709 c 0,-0.583013 -0.738678,-0.776548 -1.641521,-0.430095 -0.902842,0.346446 -1.641561,0.823461 -1.641561,1.060017 0,0.236547 0.738719,0.430095 1.641561,0.430095 0.902843,0 1.641521,-0.477007 1.641521,-1.060017 z m 4.377429,-4.411784 c 0,-0.601899 -0.521488,-1.094363 -1.158912,-1.094363 -0.637425,0 -0.854615,0.492464 -0.482608,1.094363 0.371841,0.601895 0.893536,1.09436 1.158953,1.09436 0.265542,0 0.482567,-0.492465 0.482567,-1.09436 z m 72.623602,-1.641541 c -0.70849,-1.846211 -2.1439,-2.145388 -3.07388,-0.640651 -0.3404,0.550487 4e-5,1.250306 0.75618,1.555141 2.42391,0.977231 2.96211,0.764872 2.3177,-0.91449 z m -2.74125,-3.950304 c -2.36055,-1.4957286 -3.51868,-1.1241519 -2.04198,0.655169 0.74381,0.896216 1.84163,1.327122 2.43959,0.957568 0.66038,-0.408157 0.50433,-1.041251 -0.39748,-1.612737 z M 84.050153,215.10658 c 0,-0.28871 2.041322,-1.56633 4.5363,-2.83915 3.352404,-1.71031 5.137449,-2.04682 6.83973,-1.28949 1.266908,0.56359 3.534644,0.6883 5.039377,0.27712 1.50474,-0.41113 6.18316,-0.5487 10.39642,-0.30566 4.21331,0.2432 10.50124,0.46267 13.97322,0.48778 4.65455,0.0331 6.95417,0.60756 8.7549,2.18476 l 2.4422,2.13898 -3.83026,-0.66125 c -16.56717,-2.86024 -19.61238,-2.9787 -31.5846,-1.22848 -12.493494,1.82644 -16.567287,2.13016 -16.567287,1.2353 z M 186.32788,202.42637 c -0.39666,-0.64193 -0.48662,-1.40187 -0.19978,-1.68871 0.28705,-0.28705 0.81317,0.23824 1.16958,1.16714 0.74,1.92841 0.1092,2.26761 -0.9698,0.52157 z m -79.29615,-9.4719 c -0.90284,-0.33917 -3.61137,-2.39348 -6.01899,-4.56463 -2.407582,-2.1712 -5.608603,-4.76354 -7.11334,-5.76077 -2.259381,-1.49738 -2.525833,-2.1645 -1.529761,-3.83026 2.072881,-3.46669 5.642558,-3.05803 10.337311,1.1834 5.76354,5.20702 11.22204,5.42437 15.81555,0.62977 3.87774,-4.04744 8.20772,-4.45159 8.20772,-0.76606 0,3.47235 -1.99342,5.14349 -6.13538,5.14349 -2.8906,0 -3.41453,0.36109 -2.97308,2.04931 0.36481,1.39467 -0.50846,2.79294 -2.73367,4.37742 -3.30492,2.35332 -4.87199,2.66014 -7.85636,1.53833 z m 68.94473,-1.3989 c 0.64425,-1.20379 1.41758,-2.18869 1.71853,-2.18869 0.30112,0 0.0207,0.9849 -0.62419,2.18869 -0.64425,1.20384 -1.41758,2.18874 -1.71853,2.18874 -0.30112,0 -0.0207,-0.9849 0.62419,-2.18874 z M 64.898833,157.68554 c -1.252431,-0.50664 1.08835,-0.64586 5.471818,-0.32552 4.213264,0.30815 7.865706,0.741 8.116482,0.96232 0.911239,0.80408 -11.459539,0.22418 -13.5883,-0.63688 z M 28.532166,49.624671 c 1.064774,-0.277454 2.542171,-0.259213 3.283082,0.04053 0.740912,0.299789 -0.130289,0.52679 -1.935974,0.504488 -1.805685,-0.02233 -2.411881,-0.267569 -1.347108,-0.545035 z"
       id="path7574"
       inkscape:connector-curvature="0"
       sodipodi:nodetypes="scssccccsccscscscssccsscsssscccssccccccscccscccssccsccccscscccscsccccccccccccccsssccsscccssccccccccscscccssscccccccsssccscccsscsccccssssccccccscssscscsccscccssccscscsccscccccsccscssccccccsccccccccsccccccscscssscscscccsscssssssssssscssscssccsscsssssssssssssscscsscccccccscsscccccsccsscssccccssscssccscccccsccsccccscscssccccssscccscscscscccssccccccccccssscssssssssssssssssssssssscsssccccccccscscccssssscccccccssssscsccscsccccccccccccccccccc" />
  </g>
</svg>
