<?xml version="1.0" encoding="UTF-8" standalone="no"?>
<!-- Created with Inkscape (http://www.inkscape.org/) -->

<svg
   xmlns:dc="http://purl.org/dc/elements/1.1/"
   xmlns:cc="http://creativecommons.org/ns#"
   xmlns:rdf="http://www.w3.org/1999/02/22-rdf-syntax-ns#"
   xmlns:svg="http://www.w3.org/2000/svg"
   xmlns="http://www.w3.org/2000/svg"
   xmlns:sodipodi="http://sodipodi.sourceforge.net/DTD/sodipodi-0.dtd"
   xmlns:inkscape="http://www.inkscape.org/namespaces/inkscape"
   width="210mm"
   height="297mm"
   viewBox="0 0 210 297"
   version="1.1"
   id="svg5807"
   inkscape:version="0.92.2 (5c3e80d, 2017-08-06)"
   sodipodi:docname="vrockai.svg">
  <defs
     id="defs5801" />
  <sodipodi:namedview
     id="base"
     pagecolor="#ffffff"
     bordercolor="#666666"
     borderopacity="1.0"
     inkscape:pageopacity="0.0"
     inkscape:pageshadow="2"
     inkscape:zoom="0.35"
     inkscape:cx="-160"
     inkscape:cy="560"
     inkscape:document-units="mm"
     inkscape:current-layer="layer1"
     showgrid="false"
     inkscape:window-width="1920"
     inkscape:window-height="1039"
     inkscape:window-x="0"
     inkscape:window-y="0"
     inkscape:window-maximized="1" />
  <metadata
     id="metadata5804">
    <rdf:RDF>
      <cc:Work
         rdf:about="">
        <dc:format>image/svg+xml</dc:format>
        <dc:type
           rdf:resource="http://purl.org/dc/dcmitype/StillImage" />
        <dc:title></dc:title>
      </cc:Work>
    </rdf:RDF>
  </metadata>
  <g
     inkscape:label="Layer 1"
     inkscape:groupmode="layer"
     id="layer1">
    <path
       style="fill:#c8beb7;fill-opacity:1;stroke-width:0.58782208"
       d="m 85.311101,289.45353 c -4.041276,-0.27513 -7.962785,-0.76991 -8.714433,-1.09921 -0.751648,-0.32932 -1.574422,-0.47037 -1.828362,-0.31342 -0.253938,0.15694 -2.548649,-0.10757 -5.099385,-0.58815 -2.550736,-0.4804 -5.43127,-1.02049 -6.401147,-1.20019 -5.919074,-1.09663 -18.402416,-4.90976 -25.822495,-7.88767 -5.631659,-2.26015 -13.267702,-5.84239 -13.267702,-6.22419 0,-0.17093 0.306196,-0.12156 0.680433,0.10972 0.462763,0.28601 0.578064,0.0291 0.360452,-0.80306 -0.230132,-0.88016 -0.09112,-1.13578 0.495211,-0.91076 0.464409,0.1782 0.815221,-0.0546 0.815221,-0.54069 0,-0.46943 0.52904,-1.33229 1.175644,-1.91747 0.646575,-0.58517 1.175645,-1.53637 1.175645,-2.11379 0,-0.57741 0.292735,-1.23084 0.650778,-1.45205 0.442659,-0.27358 0.524336,0.0443 0.255408,0.99399 -0.304874,1.07662 -0.254233,1.19439 0.221903,0.51448 0.339526,-0.48495 0.621387,-1.55627 0.626324,-2.38068 0.0059,-0.82443 0.326418,-1.81638 0.71441,-2.20434 0.50682,-0.50683 0.525953,-0.8848 0.06789,-1.34277 -1.079976,-1.08 -0.158418,-2.92437 1.641112,-3.28427 2.290772,-0.45816 3.028165,-1.47002 2.334417,-3.20338 l -0.559636,-1.39838 -0.03733,1.3226 c -0.0435,1.54144 -0.920764,1.75613 -1.457769,0.35673 -0.457737,-1.19285 -0.494241,-1.15949 2.008323,-1.83556 1.319808,-0.35654 1.974906,-0.84964 1.827304,-1.37543 -0.126675,-0.4508 -0.204856,-1.34052 -0.173701,-1.97716 0.06907,-1.4177 -0.848375,-2.05464 -2.976114,-2.06649 -1.804702,-0.0102 -2.069398,-0.94158 -0.764022,-2.68881 0.81237,-1.0873 0.837147,-1.07184 0.52616,0.32852 -0.320157,1.44168 -0.297702,1.4361 1.183726,-0.29391 0.830564,-0.9699 1.519608,-1.95355 1.531248,-2.18589 0.01175,-0.23231 0.431373,-0.26499 0.932785,-0.0726 0.517695,0.19866 1.494215,-0.19751 2.259912,-0.9168 0.780658,-0.7334 1.738925,-1.11671 2.276282,-0.91051 0.590615,0.22664 1.173058,-0.10177 1.601934,-0.90307 0.539914,-1.00885 0.841025,-1.12047 1.514641,-0.56144 0.692748,0.57493 0.840732,0.42641 0.840732,-0.84378 0,-0.84784 0.33065,-1.55033 0.734777,-1.56108 2.090825,-0.0557 4.372867,-3.66627 2.674914,-4.23225 -0.440984,-0.14699 -0.330914,-0.37859 0.293911,-0.61835 0.73804,-0.28322 0.998974,-0.0715 0.998974,0.81079 0,0.84439 0.325772,1.14028 1.112277,1.01025 0.611747,-0.10116 1.669826,0.32 2.351288,0.93589 1.206329,1.09025 1.239012,1.09067 1.239012,0.0161 0,-0.98434 0.100814,-0.95984 0.931698,0.22657 0.616801,0.88058 1.295295,1.21479 2.007412,0.98877 0.692131,-0.21967 1.37421,0.0848 1.912832,0.85377 0.460441,0.65735 1.677497,1.36325 2.704599,1.56866 1.427495,0.2855 1.720995,0.55001 1.245682,1.1227 -0.442865,0.53362 -0.420939,0.81615 0.07613,0.98187 0.383907,0.12797 0.725579,1.21193 0.75932,2.40882 0.0482,1.70798 -0.161064,2.17606 -0.972346,2.17577 -0.790945,-2.6e-4 -0.911418,0.24121 -0.513022,1.02834 0.801907,1.58441 1.840588,5.11061 1.840588,6.24855 0,0.59114 0.271575,0.85384 0.644341,0.62344 0.35437,-0.21902 0.53245,-1.16045 0.395722,-2.09208 -0.183694,-1.25062 -0.0059,-1.69875 0.678259,-1.71254 0.76026,-0.0153 0.726284,-0.17053 -0.188985,-0.86336 -0.922675,-0.69841 -0.986542,-1.00052 -0.368887,-1.74477 1.833534,-2.20926 4.329926,-0.43754 3.789747,2.68962 l -0.344523,1.99457 1.226579,-1.46955 c 1.35255,-1.62051 1.207475,-3.67051 -0.384788,-5.43735 -0.751619,-0.83403 -0.770752,-1.02625 -0.101111,-1.01578 1.242539,0.0194 5.369696,2.04855 6.704611,3.29635 0.646898,0.60469 2.524607,1.75307 4.172684,2.55201 2.371921,1.1498 2.934819,1.68862 2.700425,2.58485 -0.251294,0.96118 -0.06996,1.07552 1.200332,0.75669 1.192015,-0.29917 1.700658,-0.0639 2.500537,1.15694 1.597965,2.43879 0.314749,3.16179 -6.691943,3.7704 -6.381367,0.5543 -7.115557,0.76437 -7.115557,2.03592 0,0.98662 5.624752,0.78153 6.648709,-0.24241 0.741303,-0.74131 2.383501,-0.87571 1.94043,-0.15884 -1.241921,2.00951 9.568891,-3.13516 13.575427,-6.46029 2.110898,-1.7519 8.563215,-4.87658 14.280405,-6.91562 2.42477,-0.8648 5.04393,-1.91912 5.82041,-2.34294 1.24701,-0.68066 1.36856,-0.65813 1.04191,0.19316 -0.31739,0.82708 -0.18428,0.86774 0.93955,0.28677 0.72018,-0.37233 1.77229,-1.08075 2.33807,-1.57426 0.93355,-0.81432 1.03042,-0.79375 1.04738,0.22248 0.0177,1.0557 0.0635,1.06092 0.79958,0.0911 0.4295,-0.56577 1.24292,-1.02868 1.80768,-1.02868 0.63393,0 0.90706,-0.3119 0.71393,-0.81521 -0.21955,-0.5724 0.0265,-0.72681 0.82199,-0.51844 1.17484,0.30722 2.89199,-0.7261 2.89199,-1.74034 0,-0.3183 -0.41644,-0.41893 -0.92541,-0.22361 -0.50899,0.19532 -1.36527,-0.0848 -1.90287,-0.62235 -0.91142,-0.9114 -0.80913,-0.95054 1.51324,-0.57918 2.52319,0.40347 3.06643,0.0197 1.7853,-1.26152 -0.54865,-0.54863 -0.54865,-0.70539 0,-0.70539 0.38797,0 0.70539,0.26452 0.70539,0.58782 0,0.92151 0.87238,0.69481 2.38943,-0.62092 1.08359,-0.93979 1.21917,-1.31659 0.6094,-1.69345 -0.56625,-0.34997 -0.62065,-0.77721 -0.19574,-1.53663 0.55126,-0.98507 0.63928,-0.97085 1.3854,0.2239 1.13864,1.82327 1.88718,1.58121 0.90531,-0.29277 -0.79177,-1.5111 -0.72652,-1.65109 1.78042,-3.82083 1.43129,-1.23876 2.85076,-2.25228 3.15437,-2.25228 0.30365,0 0.4973,-0.19839 0.43034,-0.44087 -0.1687,-0.61142 3.06964,-3.91393 4.68266,-4.77528 0.99641,-0.53208 1.2423,-1.05012 0.98504,-2.07518 -0.26334,-1.0489 -0.06,-1.44008 0.87644,-1.68491 0.99501,-0.2602 1.21929,-0.0471 1.21929,1.15856 0,1.07995 0.23719,1.38142 0.88173,1.12061 3.02917,-1.22577 2.98591,-1.22226 2.13236,-0.17293 -0.95142,1.16962 -0.49486,1.26824 1.28627,0.27783 0.70618,-0.39268 1.98528,-0.72332 2.8425,-0.73478 1.28821,-0.0174 1.46562,0.15278 1.02284,0.98013 -0.44407,0.82975 -0.18987,1.06585 1.48681,1.38037 1.11236,0.20868 2.17858,0.78621 2.36936,1.2834 0.30406,0.79228 0.48881,0.77555 1.49533,-0.13538 1.10829,-1.00297 1.16904,-0.98521 1.73666,0.50782 0.32354,0.85092 1.00718,1.54713 1.5192,1.54713 0.51205,0 0.79806,-0.21509 0.63559,-0.47797 -0.16253,-0.26288 1.03133,-0.0708 2.6529,0.42674 1.62153,0.49758 2.66468,0.99923 2.31807,1.11477 -0.3466,0.11554 -0.6302,0.83689 -0.6302,1.60302 0,1.1089 0.44947,1.51776 2.20433,2.0051 1.21239,0.3367 2.93176,0.61366 3.82085,0.61546 0.88908,0.002 1.6165,0.2512 1.6165,0.55426 0,0.30303 1.01823,0.53691 2.26273,0.51975 1.24452,-0.0171 2.89776,0.31941 3.6739,0.74799 0.77612,0.42857 1.74861,0.71056 2.16107,0.62665 0.41247,-0.0839 1.47055,0.35024 2.35128,0.96482 0.88076,0.61456 3.22576,1.73939 5.21111,2.49961 2.36594,0.90597 3.50891,1.64502 3.3171,2.14488 -0.20044,0.52218 0.27217,0.76265 1.49901,0.76265 0.98539,0 1.95327,0.26149 2.15078,0.58109 0.20986,0.3397 -0.0808,0.44186 -0.70007,0.24591 -0.94619,-0.2994 -0.93745,-0.23595 0.0817,0.59456 0.62756,0.51134 1.61951,0.92972 2.20433,0.92972 0.68159,0 1.06328,0.43452 1.06328,1.21034 0,0.66568 0.2172,1.07602 0.48299,0.91184 0.52633,-0.3253 2.45613,1.67353 2.45613,2.54402 0,0.2959 0.46291,0.67865 1.02868,0.85056 0.56578,0.1719 0.10287,0.1936 -1.02868,0.0482 -1.13156,-0.1454 -3.6445,-0.41064 -5.58431,-0.58942 -1.93981,-0.17878 -4.9818,-0.69055 -6.75995,-1.13727 -1.77817,-0.44671 -5.44263,-1.24733 -8.14322,-1.77914 -2.7006,-0.53183 -5.27967,-1.10873 -5.73126,-1.28201 -0.62689,-0.24057 -0.82108,0.30217 -0.82108,2.29504 0,3.07375 -0.34097,3.56736 -1.89108,2.73777 -1.61283,-0.86317 -1.96506,-0.22782 -0.83224,1.50112 0.94069,1.43564 0.93235,1.45816 -0.36121,0.97727 -0.95333,-0.35442 -1.32414,-0.96653 -1.32414,-2.18595 0,-1.11363 -0.30196,-1.6937 -0.88173,-1.6937 -0.48495,0 -0.82039,0.39677 -0.74542,0.88173 0.32663,2.11259 2.63133,10.40423 3.22553,11.60447 0.48061,0.97078 0.47546,1.70569 -0.0205,2.79215 -0.58632,1.28681 -0.53251,1.47458 0.42261,1.47458 0.60196,0 1.24989,0.4629 1.43985,1.02868 0.18986,0.56578 1.01046,2.00836 1.8233,3.20572 l 1.47793,2.17702 -6.01644,3.22699 c -20.97153,11.24832 -42.43438,17.42407 -66.56213,19.15276 -9.231425,0.66142 -12.652873,0.65133 -23.218974,-0.0685 z m -7.347776,-2.8587 c 0.19986,-0.3233 0.08318,-0.58779 -0.259229,-0.58779 -0.342406,0 -0.622533,0.26451 -0.622533,0.58779 0,0.32332 0.116682,0.58785 0.259229,0.58785 0.142547,0 0.422703,-0.26453 0.622533,-0.58785 z m 31.448475,-0.33254 c 0,-0.18281 -0.29303,-0.87993 -0.65101,-1.54898 -0.52216,-0.97565 -0.75306,-1.05527 -1.16665,-0.40222 -0.69631,1.09948 -0.66738,1.84798 0.0541,1.402 0.3233,-0.19986 0.58782,-0.0832 0.58782,0.25923 0,0.34241 0.26453,0.62254 0.58783,0.62254 0.32331,0 0.58782,-0.14961 0.58782,-0.33257 z m -34.681496,-2.96985 c 0,-0.48496 -0.26452,-0.71826 -0.587822,-0.51844 -0.323332,0.1998 -0.587822,0.76006 -0.587822,1.24502 0,0.48496 0.26452,0.71825 0.587822,0.51844 0.323302,-0.1998 0.587822,-0.76007 0.587822,-1.24502 z m -11.46253,-0.22452 c -0.19986,-0.32331 0.04908,-0.58783 0.553111,-0.58783 1.208914,0 1.17585,-0.95032 -0.04937,-1.4205 -1.129676,-0.43351 -1.118537,-0.44212 -1.645902,1.27355 -0.306197,0.99609 -0.170468,1.32259 0.549497,1.32259 0.525806,0 0.792531,-0.26451 0.592729,-0.58781 z m 15.685032,-0.71519 c -0.421791,-0.4218 -0.695569,-0.45651 -0.695569,-0.0882 0,0.78462 0.695157,1.47977 1.08747,1.08747 0.166942,-0.16703 -0.0088,-0.61672 -0.391901,-0.99929 z m 30.566754,0 c -0.4218,-0.4218 -0.69561,-0.45651 -0.69561,-0.0882 0,0.78462 0.69519,1.47977 1.0875,1.08747 0.16695,-0.16703 -0.009,-0.61672 -0.39189,-0.99929 z m 0.78803,-4.03168 c 0.21308,-0.67098 0.21632,-1.39075 0.009,-1.59949 -0.44054,-0.44056 -1.46905,1.00592 -1.48225,2.08464 -0.0147,1.19134 1.05411,0.83973 1.47461,-0.48515 z m 2.37595,-1.78183 c 0.22102,-0.35775 0.0511,-1.71404 -0.378,-3.01395 l -0.78004,-2.36349 -0.67186,1.98526 c -0.88769,2.62299 0.6004,5.38155 1.8299,3.39218 z m -49.709677,-4.93384 c 0,-0.48495 -0.429169,-0.88174 -0.953712,-0.88174 -0.781098,0 -0.821276,0.1596 -0.221903,0.88174 0.402452,0.48494 0.831622,0.88173 0.953683,0.88173 0.121973,0 0.221903,-0.39679 0.221903,-0.88173 z m 51.131497,-0.44087 c -0.006,-0.40413 -0.2363,-1.09366 -0.51434,-1.53231 -0.65278,-1.03022 -1.3748,0.0565 -0.88524,1.33231 0.42553,1.10886 1.41246,1.24989 1.39958,0.2 z m -19.389135,-2.46354 c 0,-0.14258 -0.264521,-0.42272 -0.587794,-0.62253 -0.323301,-0.1998 -0.58785,-0.0832 -0.58785,0.25923 0,0.34238 0.264519,0.62252 0.58785,0.62252 0.323273,0 0.587794,-0.11666 0.587794,-0.25922 z m 35.857175,-0.32862 c 0,-0.32329 -0.26451,-0.58782 -0.58782,-0.58782 -0.32333,0 -0.58782,0.26452 -0.58782,0.58782 0,0.32331 0.26452,0.58784 0.58782,0.58784 0.32331,0 0.58782,-0.26453 0.58782,-0.58784 z m -65.248249,-0.84703 c 0,-0.14257 -0.26452,-0.42271 -0.587851,-0.62252 -0.323273,-0.19983 -0.587793,-0.0832 -0.587793,0.25923 0,0.34239 0.26452,0.62251 0.587793,0.62251 0.323331,0 0.587851,-0.11665 0.587851,-0.2592 z m 63.325579,-0.096 c -0.19545,-0.19533 -0.70233,-0.2162 -1.12665,-0.0464 -0.46894,0.18764 -0.32965,0.32694 0.35513,0.35514 0.61965,0.0256 0.96685,-0.11341 0.77152,-0.30874 z m -14.38939,-0.62198 c -0.40416,-0.16305 -1.06542,-0.16305 -1.46956,0 -0.40413,0.16307 -0.0735,0.2965 0.73478,0.2965 0.80825,0 1.13888,-0.13344 0.73478,-0.2965 z m -81.266403,-2.29053 c 0,-0.50403 -0.26452,-0.75294 -0.587822,-0.55313 -0.323331,0.19981 -0.587822,0.61221 -0.587822,0.91642 0,0.30423 0.26452,0.55313 0.587822,0.55313 0.323302,0 0.587822,-0.41238 0.587822,-0.91642 z m 82.135873,0.56128 c -0.19544,-0.19533 -0.70233,-0.2162 -1.12664,-0.0464 -0.46894,0.18764 -0.32966,0.32693 0.35513,0.35514 0.61965,0.0255 0.96685,-0.1134 0.77151,-0.30874 z m -33.052731,-1.40831 c 0.19986,-0.32331 0.08318,-0.58784 -0.259229,-0.58784 -0.342406,0 -0.622533,0.26453 -0.622533,0.58784 0,0.32328 0.116682,0.58781 0.259229,0.58781 0.142548,0 0.422703,-0.26453 0.622533,-0.58781 z m 33.799771,0 c 0,-0.32331 -0.11669,-0.58784 -0.25923,-0.58784 -0.14255,0 -0.42271,0.26453 -0.62254,0.58784 -0.19986,0.32328 -0.0832,0.58781 0.25923,0.58781 0.34238,0 0.62254,-0.26453 0.62254,-0.58781 z m -37.032791,-1.24503 c 0,-0.32331 -0.264521,-0.42436 -0.587822,-0.22455 -0.323303,0.1998 -0.587852,0.62781 -0.587852,0.95112 0,0.3233 0.264519,0.42433 0.587852,0.22451 0.323301,-0.19979 0.587822,-0.62781 0.587822,-0.9511 z m 1.763466,0 c 0,-0.32331 -0.264521,-0.42436 -0.587822,-0.22455 -0.323303,0.1998 -0.587822,0.62781 -0.587822,0.95112 0,0.3233 0.264519,0.42433 0.587822,0.22451 0.323273,-0.19979 0.587822,-0.62781 0.587822,-0.9511 z m 34.270375,-0.54286 c 0.2031,-0.77648 0.0688,-1.1362 -0.36992,-0.9918 -0.3787,0.12461 -0.77689,0.83037 -0.88489,1.56837 -0.23808,1.62623 0.80396,1.14746 1.25481,-0.57657 z m -50.1416,0.61223 c 0,-0.3233 -0.116683,-0.58782 -0.25923,-0.58782 -0.142546,0 -0.422673,0.26452 -0.622503,0.58782 -0.19986,0.3233 -0.08318,0.58782 0.259229,0.58782 0.342377,0 0.622504,-0.26452 0.622504,-0.58782 z m 9.993004,0.32861 c 0,-0.14258 -0.26452,-0.42271 -0.587822,-0.62252 -0.323332,-0.1998 -0.587822,-0.0832 -0.587822,0.25923 0,0.34239 0.26452,0.62251 0.587822,0.62251 0.323302,0 0.587822,-0.11665 0.587822,-0.25922 z M 64.09816,258.34765 c -0.61301,-0.37887 -0.610364,-0.64055 0.01469,-1.39303 0.537505,-0.64764 0.564809,-0.92655 0.09082,-0.92655 -1.119713,0 -1.433845,1.73494 -0.618771,3.41747 0.660476,1.36339 0.79935,1.4281 1.016843,0.47382 0.138433,-0.60787 -0.08788,-1.31513 -0.50291,-1.57171 z m 9.057457,-0.1384 c -0.179873,-0.291 -0.580445,-0.26117 -0.909302,0.0677 -0.323302,0.32331 -0.392636,0.90363 -0.154009,1.28962 0.329532,0.5332 0.547967,0.51694 0.909301,-0.0676 0.261581,-0.42321 0.330886,-1.00354 0.15401,-1.28963 z m -39.572858,0.75794 c 0,-0.3233 -0.116683,-0.58781 -0.25923,-0.58781 -0.142547,0 -0.422702,0.26451 -0.622532,0.58781 -0.19986,0.32331 -0.08318,0.58783 0.259229,0.58783 0.342377,0 0.622533,-0.26452 0.622533,-0.58783 z m 141.919291,-1.11135 c 0.28422,-0.45999 -2.04623,-2.41558 -2.8787,-2.41558 -0.71248,0 -0.24307,1.3943 0.71408,2.12083 1.22482,0.92976 1.72967,0.99851 2.16462,0.29475 z M 61.71904,255.70418 c 0.185751,-0.95879 0.0867,-1.00197 -0.734779,-0.32018 -1.123474,0.9324 -1.263347,2.0222 -0.214849,1.67305 0.404128,-0.13456 0.831417,-0.74334 0.949539,-1.35287 z m -2.021756,-0.65631 c 0.63764,-1.66165 -0.369564,-2.05471 -1.193837,-0.46592 -1.019019,1.96414 -1.017961,2.07303 0.01764,1.67616 0.459942,-0.17652 0.989834,-0.72111 1.177525,-1.21024 z m 57.347196,-0.0832 c -0.009,-0.85662 -0.0879,-0.87214 -0.57883,-0.11227 -0.74393,1.15118 -0.74393,1.92934 0,1.46955 0.32333,-0.1998 0.58379,-0.81059 0.57883,-1.35729 z m -34.672489,-4.22703 c 0,-0.3233 -0.116683,-0.58782 -0.25923,-0.58782 -0.142547,0 -0.422702,0.26452 -0.622532,0.58782 -0.19986,0.3233 -0.08318,0.58782 0.259229,0.58782 0.342377,0 0.622533,-0.26452 0.622533,-0.58782 z m -1.763466,-1.76346 c 0,-0.32331 -0.46291,-0.58378 -1.028689,-0.57883 -0.879146,0.007 -0.900484,0.0919 -0.146955,0.57883 1.109337,0.71691 1.175644,0.71691 1.175644,0 z m -4.702577,-2.93912 c 0,-0.32329 -0.26452,-0.58782 -0.587851,-0.58782 -0.323303,0 -0.587793,0.26452 -0.587793,0.58782 0,0.32331 0.26452,0.58784 0.587793,0.58784 0.323331,0 0.587851,-0.26453 0.587851,-0.58784 z m -2.93911,-1.76346 c 0,-0.32331 -0.280097,-0.58782 -0.622534,-0.58782 -0.342376,0 -0.459029,0.26452 -0.259229,0.58782 0.19986,0.3233 0.479957,0.58782 0.622534,0.58782 0.142546,0 0.259229,-0.26452 0.259229,-0.58782 z M 199.9364,241.10147 c 0,-0.12706 -0.41053,-0.38855 -0.91226,-0.58109 -0.52314,-0.20074 -0.75909,-0.10219 -0.55314,0.23101 0.3452,0.55855 1.4654,0.82616 1.4654,0.35008 z m -2.35131,-2.70809 c 0,-0.32331 -0.54465,-0.58782 -1.21032,-0.58782 -0.66569,0 -1.04685,0.26451 -0.84705,0.58782 0.19986,0.3233 0.74447,0.58782 1.21035,0.58782 0.46587,0 0.84702,-0.26452 0.84702,-0.58782 z m -66.42387,-0.58782 c 0,-0.32331 -0.26451,-0.58782 -0.58782,-0.58782 -0.3233,0 -0.58782,0.26452 -0.58782,0.58782 0,0.3233 0.26452,0.58782 0.58782,0.58782 0.32328,0 0.58782,-0.26452 0.58782,-0.58782 z m 2.93912,0 c 0,-0.32331 -0.26452,-0.58782 -0.58785,-0.58782 -0.32328,0 -0.58779,0.26452 -0.58779,0.58782 0,0.3233 0.26451,0.58782 0.58779,0.58782 0.32333,0 0.58785,-0.26452 0.58785,-0.58782 z m 3.18494,-0.94463 c 1.68561,-0.64683 1.05322,-1.80898 -0.83366,-1.53204 -1.82319,0.26756 -2.31284,0.98138 -1.02868,1.49954 0.40413,0.16306 0.77927,0.31737 0.83364,0.3429 0.0544,0.0255 0.51729,-0.11415 1.0287,-0.3104 z m 52.54461,-2.89177 c -0.18105,-0.181 -0.50967,0.14524 -0.73042,0.72498 -0.31898,0.83776 -0.25159,0.90528 0.32906,0.32906 0.40175,-0.39875 0.58236,-0.87305 0.40136,-1.05404 z m -52.20265,-2.04182 c 0,-0.3233 -0.26452,-0.58783 -0.5878,-0.58783 -0.3233,0 -0.58782,0.26452 -0.58782,0.58783 0,0.3233 0.26452,0.58782 0.58782,0.58782 0.32328,0 0.5878,-0.26452 0.5878,-0.58782 z m 26.84242,-4.44818 c 0.19427,-0.50669 0.0538,-1.22089 -0.31236,-1.58712 -0.49595,-0.49596 -0.66589,-0.48587 -0.66589,0.0396 0,0.40011 -0.8268,0.71348 -1.91039,0.72408 -1.80709,0.0177 -1.8487,0.0654 -0.7694,0.88173 1.49069,1.12752 3.21357,1.1001 3.65804,-0.0581 z m 4.08643,0.0739 c 0.17899,-0.46608 0.22837,-1.32576 0.11021,-1.91044 -0.16782,-0.82946 -0.42702,-0.64329 -1.18031,0.84741 -0.81923,1.62121 -0.83588,1.91041 -0.11022,1.91041 0.47034,0 1.00147,-0.38132 1.18032,-0.84738 z m 9.92311,28.26102 c -1.04171,-1.58982 -1.00911,-3.36859 0.0682,-3.72728 0.59278,-0.19736 1.63893,4.48909 1.11827,5.00972 -0.11522,0.11507 -0.64902,-0.46204 -1.18658,-1.28244 z M 38.285337,238.94656 c 0,-0.34239 0.26452,-0.45904 0.587822,-0.25923 0.323302,0.1998 0.587822,0.47995 0.587822,0.62251 0,0.14258 -0.26452,0.25923 -0.587822,0.25923 -0.323332,0 -0.587822,-0.28012 -0.587822,-0.62251 z m 85.528083,-1.14095 c -1.12177,-0.48205 -1.11501,-0.50709 0.14696,-0.54651 0.72742,-0.0226 1.32262,0.2232 1.32262,0.54651 0,0.3233 -0.0661,0.56922 -0.14695,0.5465 -0.0808,-0.0226 -0.67599,-0.26864 -1.32263,-0.5465 z m -84.205513,-1.5098 c -1.098081,-1.1834 -0.887611,-1.94705 0.440896,-1.59963 1.262024,0.33003 1.404806,0.66874 0.725755,1.72178 -0.314309,0.48743 -0.63185,0.45418 -1.166651,-0.12215 z m 3.184055,-0.0577 c -0.215436,-0.21552 -0.3919,-0.66522 -0.3919,-0.9993 0,-0.36833 0.273925,-0.33362 0.695599,0.0882 0.382584,0.38258 0.55893,0.83227 0.391901,0.99931 -0.166942,0.16703 -0.480074,0.12735 -0.6956,-0.0882 z m 16.654939,-3.13505 c 0,-0.3233 -0.537328,-0.58782 -1.194072,-0.58782 -0.656744,0 -1.352197,-0.41198 -1.545414,-0.91551 -0.193099,-0.50353 -0.668559,-0.79378 -1.056316,-0.64499 -0.739186,0.28366 -4.927654,-2.3068 -7.279824,-4.50236 -4.09903,-3.82612 -2.825366,-5.10576 5.081957,-5.10576 3.21571,0 6.707873,0.17223 7.760368,0.38273 l 1.913655,0.38274 -0.344405,3.68816 c -0.371239,3.97552 -1.719879,7.89063 -2.718118,7.89063 -0.339791,0 -0.617831,-0.26452 -0.617831,-0.58782 z m 0,-2.93911 c 0,-0.3233 -0.280097,-0.58782 -0.622503,-0.58782 -0.342378,0 -0.45903,0.26452 -0.25923,0.58782 0.19986,0.32331 0.479957,0.58783 0.622533,0.58783 0.142547,0 0.259229,-0.26452 0.259229,-0.58783 z m -18.478597,1.00334 c 0.220726,-0.57973 0.549437,-0.90596 0.730427,-0.72499 0.181049,0.181 3.82e-4,0.65531 -0.401365,1.05405 -0.580533,0.57621 -0.648044,0.5087 -0.329062,-0.32906 z m 49.960318,-12.55595 c -5.135947,-0.74199 -7.739941,-1.48129 -10.872944,-3.0869 -3.221471,-1.65097 1.238541,-2.40733 14.194932,-2.40733 7.68207,0 8.6148,-0.12909 15.34409,-2.12347 3.94068,-1.1679 7.87635,-2.25366 8.74595,-2.41281 0.8696,-0.15912 2.0348,-0.79069 2.58935,-1.40347 0.97251,-1.07458 3.76894,-1.57511 3.76154,-0.67326 -0.006,0.56707 -5.12454,5.90349 -7.3782,7.6902 -0.95119,0.75411 -2.91839,1.91935 -4.37161,2.58942 -6.35764,2.93151 -11.44736,3.35408 -22.013108,1.82762 z m 53.620608,-29.48915 c -1.26038,-0.90697 -2.19302,-2.07421 -2.1981,-2.75103 -0.009,-1.08498 1.82563,-13.04573 3.52716,-23.00599 l 0.7168,-4.19569 2.23686,0.30003 c 2.59573,0.34816 5.67387,-1.24614 7.58335,-3.92773 0.64589,-0.9071 2.61836,-5.05465 4.38321,-9.21675 1.76488,-4.1621 3.73214,-8.57234 4.37169,-9.8005 1.03016,-1.97819 1.2065,-2.0956 1.54512,-1.0287 0.54647,1.7217 2.06649,1.52663 2.06649,-0.26519 0,-0.80826 -0.24953,-1.46956 -0.55458,-1.46956 -0.30502,0 -1.02458,-0.79565 -1.59902,-1.7681 l -1.04445,-1.76808 -1.02152,1.91504 c -0.56183,1.05328 -1.03262,2.37186 -1.04617,2.93019 -0.0346,1.42748 -2.90322,3.26693 -3.52522,2.26052 -0.25365,-0.41038 -0.95849,-0.64818 -1.56634,-0.52844 -0.98349,0.19375 -1.1052,0.79889 -1.1052,5.4952 0,4.18044 -0.22778,5.61351 -1.09632,6.89399 -1.12721,1.6621 -2.73907,2.18734 -2.70583,0.88173 0.0118,-0.40412 0.40704,-1.24824 0.88173,-1.87581 2.03722,-2.69345 -0.27127,-3.67274 -3.54562,-1.50416 -0.96994,0.64235 -2.04127,1.16964 -2.3808,1.17177 -0.65663,0.004 -1.77002,-7.81843 -2.63497,-18.51252 -0.56149,-6.9424 -1.02328,-9.27056 -2.55653,-12.88921 -1.24629,-2.94135 -1.87639,-2.35385 -3.26497,3.04448 -1.12297,4.36581 -1.58232,5.43606 -2.3331,5.43606 -0.25452,0 0.0177,-1.38872 0.60332,-3.08606 0.58638,-1.69733 1.07477,-4.68045 1.08533,-6.62916 0.0349,-6.46827 -2.26145,-7.91943 -12.53252,-7.91943 -6.43971,0 -6.7487,0.0571 -7.63772,1.41403 -1.08286,1.65263 -5.51594,2.73316 -6.26183,1.52628 -0.26747,-0.43303 -0.5809,-0.48917 -0.79516,-0.14251 -0.58161,0.94111 1.51597,2.38585 4.4035,3.03298 3.56015,0.79782 11.01276,3.49899 12.69491,4.60117 2.16345,1.41753 1.51742,2.03006 -0.87366,0.82842 -3.05156,-1.53356 -7.09163,-2.40015 -13.81847,-2.96404 -3.35411,-0.28119 -6.16113,-0.82203 -6.75995,-1.30251 -2.39746,-1.92369 -3.798,-2.44504 -4.32687,-1.61065 -0.63564,1.00292 -0.64296,0.89927 0.28157,3.99163 0.42999,1.43817 1.08726,2.71668 1.46062,2.84114 0.92144,0.30714 0.86848,-0.87284 -0.0558,-1.24585 -0.43893,-0.17711 -0.3206,-0.31517 0.29391,-0.34289 1.27131,-0.0574 1.32657,1.00143 0.12168,2.33274 -0.81819,0.9041 -0.81214,1.20095 0.0617,3.03372 0.53283,1.11736 1.66838,2.46568 2.52346,2.99628 1.10658,0.68667 1.27028,0.96923 0.56798,0.98036 -2.01914,0.0321 -4.41719,-3.80025 -6.60015,-10.54758 -1.15728,-3.57694 -1.37042,-3.84535 -3.581778,-4.51044 -1.971144,-0.59285 -2.097731,-0.71448 -0.782862,-0.75235 0.862659,-0.025 2.019111,-0.21811 2.5699,-0.42948 0.8899,-0.34147 0.85228,-0.49681 -0.337586,-1.39433 -2.614809,-1.97236 -0.0059,-4.09959 5.025646,-4.09959 1.84047,0 2.74489,-0.29422 3.16216,-1.02868 0.49315,-0.86805 0.77183,-0.91395 1.78469,-0.29391 0.66014,0.40412 1.76531,0.73477 2.45588,0.73477 1.00732,0 1.12104,0.16212 0.57515,0.81989 -0.57812,0.69656 0.89185,0.80706 9.77405,0.73477 9.31774,-0.0758 10.82733,0.0506 13.88351,1.16281 l 3.42903,1.24793 -0.40113,-3.45612 c -0.35558,-3.06368 -0.29098,-3.41387 0.5689,-3.0839 0.85401,0.32772 0.9249,-0.006 0.59278,-2.788285 -1.66874,-13.981033 -3.26579,-19.455501 -7.19882,-24.676596 -0.8775,-1.164875 -2.46782,-3.347165 -3.53411,-4.849532 -1.06627,-1.502367 -2.36804,-2.731574 -2.89281,-2.731574 -0.52481,0 -1.40419,-0.40726 -1.95422,-0.905022 -0.55002,-0.497768 -2.33908,-1.394464 -3.97568,-1.992664 -2.7565,-1.007536 -3.0756,-1.01764 -4.33257,-0.137227 -0.76738,0.537481 -2.76338,1.00785 -4.59404,1.082598 -4.23543,0.172937 -14.684468,-2.424378 -18.609621,-4.625793 -2.474731,-1.387951 -3.817816,-1.720964 -7.347776,-1.82186 -2.375712,-0.06789 -5.840482,0.09396 -7.699469,0.359698 -3.280106,0.468884 -3.380536,0.442826 -3.398611,-0.881734 -0.01764,-1.348787 -0.03292,-1.345819 -1.224669,0.251617 -0.665149,0.89152 -1.77725,1.61798 -2.479609,1.619788 -3.258386,0.0085 -5.82417,1.348863 -9.370442,4.895496 -2.012762,2.012992 -4.787635,4.418095 -6.166372,5.344685 -2.938551,1.974888 -3.866722,4.471574 -4.823784,12.975513 -0.832209,7.394817 -0.74095,11.86133 0.31231,15.283377 0.497561,1.616515 0.956357,4.604755 1.019547,6.640525 0.107278,3.45189 0.198978,3.68037 1.35975,3.38899 3.271201,-0.82101 9.799641,-1.47554 14.044098,-1.40801 4.562851,0.0726 4.507478,0.088 -1.862456,0.5164 -8.585023,0.57748 -10.770134,0.97725 -13.106051,2.39782 l -1.937931,1.17851 0.328915,5.69323 c 0.18105,3.13128 0.485865,6.35453 0.67773,7.16278 0.191924,0.80825 -0.218082,0.27922 -0.911271,-1.17564 l -1.260085,-2.6452 -0.886406,2.05738 c -0.848228,1.96882 -1.060079,9.2606 -0.606192,20.86767 0.07583,1.93982 -0.06025,4.25792 -0.302258,5.15134 -0.382701,1.41227 -0.649602,1.57423 -2.043533,1.24012 -2.994072,-0.71763 -4.724268,-1.951 -5.810328,-4.14189 -1.271077,-2.56407 -2.993603,-3.54021 -2.293242,-1.29955 1.057669,3.3837 1.020813,4.65333 -0.194569,6.71354 -0.682373,1.15651 -1.240657,2.35214 -1.240657,2.65696 0,1.15973 1.237101,0.48159 2.295064,-1.25808 1.266727,-2.08297 1.336473,-2.01449 2.666184,2.61694 1.34047,4.66899 3.496072,7.92224 5.920426,8.93521 1.523548,0.63657 2.137321,1.3528 2.606198,3.04115 0.811165,2.92093 0.816897,2.89674 -0.673145,2.84295 -0.79109,-0.0285 -1.560873,0.48111 -1.983076,1.31296 -0.379556,0.7478 -0.921911,1.35587 -1.205241,1.35124 -0.283331,-0.005 -1.440987,0.57168 -2.572544,1.28065 l -2.057378,1.28904 2.249243,0.19004 c 1.740511,0.14707 2.505004,-0.10484 3.379977,-1.1137 0.917707,-1.05811 1.130734,-1.12068 1.130734,-0.33207 0,0.53442 0.264521,0.97167 0.587822,0.97167 0.892755,0 0.702183,-1.52461 -0.29391,-2.35128 -1.312931,-1.08965 -1.070483,-1.76348 0.634524,-1.76348 1.39596,0 1.486426,0.15157 1.139993,1.91043 -0.244829,1.24283 -0.186634,1.63589 0.166353,1.1248 0.384906,-0.55726 1.263964,1.066 3.024139,5.58431 2.857785,7.33589 3.60088,10.53418 2.325512,10.00907 -0.453446,-0.18672 -1.940694,-0.64837 -3.304941,-1.02592 -2.381474,-0.65906 -4.654846,-2.31931 -3.175827,-2.31931 1.204918,0 0.68305,-2.3996 -1.0788,-4.96036 -1.587032,-2.30669 -1.997537,-2.55187 -4.708514,-2.81235 -1.633469,-0.15696 -3.450985,-0.72074 -4.038954,-1.25284 -0.587969,-0.53209 -1.600906,-0.96744 -2.250978,-0.96744 -0.710206,0 -1.467203,-0.62603 -1.896607,-1.56848 -0.653306,-1.43386 -0.630734,-1.49882 0.26305,-0.75696 0.845847,0.70199 1.089969,0.65812 1.808905,-0.32508 0.457091,-0.62513 0.701301,-1.47482 0.542648,-1.88824 -0.158713,-0.4134 -0.03233,-0.75164 0.280979,-0.75164 0.313162,0 0.569364,0.52905 0.569364,1.17564 0,1.86238 0.961471,1.37231 2.01811,-1.02868 0.533537,-1.21239 1.40951,-2.90714 1.946573,-3.76612 1.304172,-2.08591 0.222785,-4.92019 -1.686725,-4.42084 -1.847202,0.48305 -3.053914,-0.13627 -2.220969,-1.13988 0.510201,-0.61476 0.504175,-0.81309 -0.02351,-0.81309 -0.663769,0 -0.631204,-0.2786 0.412181,-3.52694 0.155773,-0.48495 -0.446627,0.17635 -1.338677,1.46956 -2.476847,3.59078 -2.864664,3.79836 -1.39693,0.74767 1.45821,-3.0309 1.29115,-3.84288 -0.584178,-2.83923 -1.71647,0.91863 -3.484961,-0.25447 -3.135972,-2.08022 0.143429,-0.75068 -0.289208,-2.50107 -0.961353,-3.88976 -1.147781,-2.37104 -1.180582,-5.54994 -0.04997,-4.85123 0.266872,0.165 0.491479,-0.16862 0.498885,-0.74139 0.02057,-1.55387 0.552788,-5.524 0.987629,-7.36049 0.463292,-1.95665 -0.488891,-2.15099 -1.745919,-0.35634 l -0.882644,1.26017 -0.367624,-1.46467 c -0.293911,-1.17072 -0.654246,-1.40988 -1.795884,-1.19164 -1.02096,0.19517 -1.428261,0.0103 -1.428261,-0.64801 0,-0.50659 -0.380968,-1.13426 -0.846582,-1.39484 -1.508292,-0.84409 -2.101464,-5.22717 -1.103694,-8.15547 0.486834,-1.42878 1.124797,-2.59779 1.417709,-2.59779 0.293029,0 0.532567,-0.39677 0.532567,-0.88173 0,-0.48496 0.26452,-0.88173 0.587822,-0.88173 0.988716,0 0.705445,-7.21218 -0.342024,-8.70763 -0.664357,-0.94854 -0.820013,-1.97754 -0.545147,-3.60442 0.263638,-1.56138 0.09582,-2.83561 -0.534771,-4.05487 -0.675023,-1.30534 -0.909182,-3.45156 -0.880966,-8.074296 0.02351,-3.692925 -0.209852,-6.449727 -0.561752,-6.667295 -0.38082,-0.235364 -0.399984,-0.687587 -0.05232,-1.237163 0.301289,-0.476427 0.551848,-2.354824 0.556815,-4.174227 0.0058,-2.276582 0.295998,-3.54619 0.929494,-4.071937 1.284538,-1.066086 2.725967,-4.00147 2.301853,-4.687675 -0.193981,-0.313809 -1.07551,-0.570558 -1.959006,-0.570558 -1.141021,0 -2.365572,-0.788052 -4.227028,-2.72024 l -2.620627,-2.720248 2.766585,0.354204 c 1.521607,0.194805 2.886882,0.159535 3.033926,-0.07838 0.345668,-0.559277 -0.845406,-2.172931 -1.979667,-2.682079 -0.484954,-0.21767 -0.220434,-0.239243 0.587822,-0.0479 0.808255,0.191336 2.053438,0.487469 2.767084,0.658073 1.673354,0.40003 4.337099,-2.425942 6.476711,-6.871146 0.855899,-1.778162 2.643995,-4.687881 3.973561,-6.466043 1.329566,-1.778162 2.611547,-3.740165 2.848792,-4.360005 0.328827,-0.858958 0.594582,-0.963806 1.117538,-0.440867 0.81916,0.819156 3.339241,0.886139 4.549273,0.120915 0.740156,-0.468092 0.717642,-0.603838 -0.155774,-0.938992 -0.561546,-0.215467 -1.546089,-0.254469 -2.187873,-0.08664 -2.216384,0.579598 -1.158539,-0.805783 1.478343,-1.936083 2.949897,-1.26447 3.179941,-1.816561 1.469555,-3.526932 -0.646604,-0.646604 -1.175644,-1.313576 -1.175644,-1.482158 0,-0.168587 -0.69892,-1.362654 -1.553144,-2.653494 -1.502149,-2.269874 -1.518462,-2.385326 -0.496739,-3.514326 1.408216,-1.556044 2.838681,-1.550983 2.343794,0.0083 -0.278628,0.878233 -0.102869,1.180374 0.695158,1.194337 0.587587,0.01029 1.58177,0.407064 2.209359,0.881734 1.661979,1.257072 2.632737,1.063299 3.286425,-0.655995 0.317659,-0.835472 1.416504,-2.356461 2.4419,-3.37998 1.661921,-1.658869 1.82701,-1.717325 1.520315,-0.538339 -0.189279,0.727429 -0.124913,1.322599 0.143134,1.322599 0.753587,0 1.882206,-3.960513 1.485133,-5.211556 -0.456533,-1.438457 1.437312,-2.2969 2.171825,-0.984429 0.610513,1.090956 1.99933,1.189375 2.410364,0.170821 0.237187,-0.587822 0.305756,-0.587822 0.342877,0 0.02646,0.404128 0.610072,0.734777 1.29897,0.734777 1.113864,0 1.213852,-0.238449 0.90307,-2.153601 -0.192217,-1.184478 -0.639286,-2.440948 -0.993477,-2.792153 -0.465468,-0.461541 -0.535418,-0.35339 -0.25247,0.390133 0.266872,0.700961 0.106395,1.028689 -0.503999,1.028689 -0.492624,0 -1.02907,0.330651 -1.192132,0.734777 -0.163121,0.404128 -0.317365,0.192512 -0.342906,-0.470256 -0.02645,-0.66277 -0.363833,-1.52246 -0.751795,-1.910422 -0.882615,-0.882633 -0.104927,-1.71123 1.857106,-1.978212 1.141727,-0.155362 1.541799,-0.662017 1.903133,-2.410194 0.643166,-3.111686 2.683407,-6.897779 3.717063,-6.897779 0.47837,0 0.869771,-0.378954 0.869771,-0.842121 0,-1.266497 2.139878,-1.727736 7.274592,-1.568003 6.476006,0.201461 7.42096,0.64704 7.42096,3.499244 0,2.575476 1.121858,4.019941 2.247714,2.894084 0.52998,-0.529986 0.691396,-0.475258 0.691396,0.234421 0,0.595659 0.524073,0.925819 1.469555,0.925819 1.692986,0 1.800734,-0.276267 0.617565,-1.58365 -1.518167,-1.677546 -0.343699,-2.360153 2.816521,-1.636993 2.13835,0.489325 3.112782,0.477269 3.955366,-0.04894 1.482722,-0.925985 2.700602,-0.883403 3.080923,0.107719 0.211909,0.552057 1.011935,0.728505 2.539858,0.56013 1.22682,-0.135194 2.31405,-0.329301 2.4161,-0.431349 0.10199,-0.102051 -0.62292,-1.050988 -1.61102,-2.108757 -1.70709,-1.827519 -1.75065,-1.993333 -0.87459,-3.3303598 0.50709,-0.773896 0.78101,-1.6351289 0.60875,-1.9138491 -0.17223,-0.2787217 0.61187,-0.6803062 1.74251,-0.8924129 1.67873,-0.3149348 2.43229,-0.098386 4.10961,1.1809577 1.96865,1.5015573 2.1214,1.8873891 2.33813,5.9054241 0.037,0.684934 0.51713,1.932097 1.06713,2.771475 0.54996,0.839376 0.99994,1.83303 0.99994,2.208121 0,0.444252 0.61475,0.559037 1.76346,0.329287 1.33666,-0.267326 1.76348,-0.137823 1.76348,0.535027 0,1.328876 2.27078,-0.04103 2.92641,-1.76541 0.55173,-1.451154 4.73209,-3.227943 6.62569,-2.816139 1.71518,0.372999 1.26756,2.244778 -0.53041,2.218056 -0.85755,-0.01275 -1.67315,0.307476 -1.81246,0.711604 -0.17488,0.507611 0.47389,0.734777 2.09887,0.734777 1.29371,0 2.77061,0.160561 3.28202,0.356803 1.53522,0.589124 1.0507,1.406664 -0.83368,1.406664 -0.96991,0 -1.76347,0.236215 -1.76347,0.52493 0,0.67467 1.478,1.238536 3.24643,1.238536 2.22391,0 2.22372,0.982097 -5.1e-4,2.756831 -1.13864,0.908508 -2.07024,1.982483 -2.07024,2.386611 -3e-5,0.931454 0.0876,0.925355 2.90501,-0.201917 2.48694,-0.995065 3.66472,-2.959999 2.30133,-3.839277 -0.66151,-0.426609 -0.64717,-0.613251 0.0841,-1.093255 1.40689,-0.923577 2.35128,-0.691096 2.35128,0.57882 0,0.907067 0.39187,1.175644 1.71539,1.175644 0.94345,0 2.13379,0.160564 2.6452,0.356802 1.65345,0.634497 0.98642,1.447305 -1.0739,1.30855 -1.10202,-0.07422 -2.42465,0.214408 -2.9391,0.641385 -1.03942,0.862648 -1.26189,2.395839 -0.34759,2.395839 0.32331,0 0.5878,-0.280127 0.5878,-0.622512 0,-0.342384 0.32168,-0.423715 0.71482,-0.180726 0.39314,0.242976 1.63329,0.591069 2.75585,0.773538 1.69705,0.275835 2.12428,0.653055 2.53502,2.238112 0.69751,2.691725 2.43472,2.342917 4.69764,-0.943208 l 0.95033,-1.380003 0.66274,1.238347 c 0.51255,0.957709 1.00518,1.152399 2.17379,0.859093 1.37724,-0.345666 1.47323,-0.255026 1.08397,1.023392 -0.23483,0.771455 -1.32251,2.196203 -2.41695,3.16611 -1.09443,0.969907 -3.07956,2.755416 -4.41139,3.967799 -1.33183,1.21238 -2.65414,2.20433 -2.93846,2.20433 -0.28422,0 -0.51696,0.218728 -0.51696,0.486087 0,0.66903 12.78454,3.769488 13.68014,3.317662 0.39681,-0.200212 0.26335,0.01205 -0.29691,0.471657 -0.94863,0.778399 -0.91653,0.882071 0.46853,1.513148 0.8178,0.372617 2.26805,0.677491 3.22276,0.677491 0.95468,0 1.73578,0.297585 1.73578,0.661299 0,0.411488 0.62459,0.536382 1.65339,0.330624 l 1.65337,-0.330673 -0.39787,3.04935 c -0.21896,1.677145 -0.19368,3.182219 0.0561,3.34461 0.24983,0.162386 0.64176,1.296098 0.87125,2.519345 0.34122,1.818894 0.8062,2.397 2.5522,3.173215 1.56746,0.696846 1.86151,1.01519 1.10626,1.197647 -1.19334,0.288297 -1.20769,0.370889 -0.4807,2.765776 1.58447,5.219619 1.92009,6.737711 1.65111,7.468479 -0.18722,0.508484 -0.57058,0.156302 -1.04589,-0.960701 -0.59411,-1.396159 -0.80252,-1.543186 -1.00047,-0.705875 -0.13755,0.581674 0.15901,1.681854 0.65889,2.444847 1.14699,1.750527 2.31569,8.656121 1.5455,9.132115 -0.30861,0.190748 0.0235,1.226368 0.74806,2.330503 2.31599,3.530876 2.74824,4.429672 2.21815,4.612254 -0.29497,0.101601 -0.30552,0.927722 -0.0235,1.908053 0.5895,2.055412 2.91566,5.471395 3.39762,4.989423 0.18634,-0.18634 0.82968,1.551009 1.42961,3.86078 0.59996,2.309765 0.94769,4.342725 0.77272,4.517685 -0.17488,0.17497 -0.3181,-0.15107 -0.3181,-0.72448 0,-0.65895 -0.30702,-0.92479 -0.83438,-0.72242 -0.49682,0.19065 -2.03022,-0.87567 -3.79036,-2.63583 -3.24387,-3.243837 -4.4142,-3.355973 -3.57802,-0.342805 0.63431,2.285665 3.94752,5.348985 6.5856,6.088895 2.89735,0.81261 4.27911,4.02101 4.19902,9.74992 -0.044,3.16185 -0.36092,4.98536 -1.04811,6.03415 -1.02093,1.55814 -2.17517,5.86858 -2.32778,8.69288 -0.0494,0.91318 -0.49873,1.754 -1.02719,1.92172 -1.02992,0.32688 -2.29354,2.68579 -2.29354,4.28154 0,0.55633 -0.6613,1.98473 -1.46955,3.17417 -2.11783,3.11665 -1.94087,3.60669 1.17564,3.25541 1.84518,-0.20798 2.64521,-0.0825 2.64521,0.4149 0,0.85122 -4.05183,6.16463 -4.7812,6.26987 -0.2801,0.0404 -0.77372,0.13962 -1.09702,0.22044 -0.32331,0.0808 -0.72941,0.18002 -0.90243,0.22044 -0.17311,0.0404 -0.0177,0.62755 0.34437,1.30475 0.70631,1.31973 0.86731,1.30573 -2.82192,0.24532 -1.63144,-0.46894 -1.86031,1.09093 -0.29391,2.00327 0.97969,0.57062 0.97969,0.60001 0,0.61702 -0.56578,0.0102 -1.02869,0.25409 -1.02869,0.54281 0,0.63676 1.45141,1.23854 2.98719,1.23854 1.39385,0 1.55658,2.22355 0.20074,2.74382 -0.50973,0.1956 -1.16447,0.98085 -1.455,1.74501 -0.35399,0.93104 -0.99636,1.38939 -1.94725,1.38939 -0.78043,0 -2.04345,0.51181 -2.80671,1.13736 -1.22946,1.00765 -1.29926,1.28232 -0.61218,2.40853 0.42653,0.69914 0.61051,1.43614 0.40889,1.63778 -0.20163,0.20161 -0.61269,-0.0227 -0.91345,-0.49812 -0.43055,-0.68077 -0.54879,-0.57896 -0.55588,0.47857 -0.009,1.14513 -0.17663,1.25352 -1.14599,0.73478 -1.60486,-0.85891 -2.57198,-0.75511 -2.19195,0.23525 0.17811,0.46406 0.009,0.97222 -0.37797,1.12923 -0.38596,0.15701 -0.0406,0.31042 0.76782,0.34089 1.12329,0.0423 1.26966,0.18188 0.62123,0.59213 -0.70012,0.44297 -0.72196,0.81408 -0.12491,2.12434 0.39784,0.87319 0.61704,1.69395 0.48707,1.8239 -0.31992,0.31994 -2.45445,-2.91883 -2.28974,-3.47428 0.072,-0.24247 -0.23366,-0.44087 -0.67903,-0.44087 -0.44536,0 -1.13905,-0.39677 -1.54153,-0.88172 -0.40248,-0.48496 -0.96391,-0.88173 -1.24762,-0.88173 -0.82822,0 -0.59332,1.77062 0.27922,2.10549 0.43733,0.16782 1.40865,1.615 2.1585,3.21598 l 1.36337,2.91085 -1.27678,1.35908 c -1.55738,1.65775 -1.55749,1.66149 -0.10106,3.34068 0.78747,0.90794 1.17564,2.19926 1.17564,3.91079 0,2.36866 -0.65375,3.28743 -1.4372,2.01979 -0.6347,-1.02698 -5.25689,0.74169 -5.98153,2.28881 -0.48988,1.04588 -0.63119,1.02122 -2.70615,-0.47187 z M 34.758374,153.08985 c 0,-0.3233 -0.26452,-0.42435 -0.587793,-0.22453 -0.323302,0.19981 -0.587822,0.62782 -0.587822,0.95111 0,0.32331 0.26452,0.42435 0.587822,0.22453 0.323302,-0.19981 0.587793,-0.62781 0.587793,-0.95111 z m -0.234542,-3.19102 c 0.545882,-2.17493 -0.10757,-2.40491 -0.842584,-0.29655 -0.365095,1.04736 -0.398043,1.79349 -0.07906,1.79349 0.300317,0 0.715114,-0.67363 0.921734,-1.49694 z m 5.634658,-9.23082 c 0.277452,-2.87801 -0.163414,-6.35535 -0.758996,-5.98721 -0.702388,0.43412 -0.679551,7.89763 0.02351,7.89763 0.302845,0 0.633496,-0.85969 0.734777,-1.91042 z m 132.73805,-10.98697 c 0,-0.30422 -0.26453,-0.71662 -0.5878,-0.91643 -0.3233,-0.1998 -0.58785,0.049 -0.58785,0.55314 0,0.50403 0.26452,0.91642 0.58785,0.91642 0.32327,0 0.5878,-0.24892 0.5878,-0.55313 z M 38.285307,122.59249 c 0,-0.32331 -0.26452,-0.58783 -0.587823,-0.58783 -0.323302,0 -0.587822,0.26452 -0.587822,0.58783 0,0.32329 0.26452,0.58781 0.587822,0.58781 0.323302,0 0.587823,-0.26452 0.587823,-0.58781 z m 0.587823,-2.76277 c 0,-1.18211 -0.169882,-1.41719 -0.665887,-0.92125 -0.366242,0.36623 -0.50679,1.08044 -0.312369,1.58712 0.538123,1.40229 0.978256,1.1027 0.978256,-0.66587 z m 5.87822,-4.99576 c 0,-0.34941 0.46291,-0.98669 1.028689,-1.41617 0.941985,-0.71509 0.945511,-0.78247 0.04203,-0.79959 -1.354196,-0.0255 -2.856374,1.59068 -2.453658,2.64015 0.357044,0.93043 1.382998,0.6156 1.382998,-0.42439 z m -0.774103,-4.10814 c -0.187809,-0.46892 -0.326946,-0.32963 -0.355162,0.35515 -0.02645,0.61966 0.113449,0.96684 0.308754,0.77152 0.19545,-0.19534 0.216318,-0.70233 0.04644,-1.12667 z m 100.703863,0.11023 c -0.48496,-0.31341 -1.41078,-0.55529 -2.05738,-0.53751 l -1.17565,0.0324 1.17565,0.50519 c 0.6466,0.27787 1.57242,0.51973 2.05738,0.5375 0.78373,0.0288 0.78373,-0.031 0,-0.5375 z m -93.145471,-9.77606 c -0.204268,-1.089215 -0.653511,-1.980375 -0.99815,-1.980375 -0.397751,0 -0.48563,0.75139 -0.240714,2.057365 0.305843,1.63023 0.197214,2.05739 -0.522397,2.05739 -0.499591,0 -0.908362,0.4146 -0.908362,0.92135 0,0.65382 0.341319,0.81298 1.175644,0.5482 0.755646,-0.23983 1.204241,-0.0965 1.255705,0.40125 0.04409,0.42591 0.199272,0.14457 0.344876,-0.62521 0.14578,-0.76977 0.09757,-2.29077 -0.10669,-3.37997 z m -14.850532,-0.22364 c 1.125474,-1.314465 1.334445,-3.251786 0.412211,-3.821744 -0.554493,-0.342703 -2.338973,3.012184 -2.338973,4.397394 0,0.95773 0.824831,0.7113 1.926762,-0.57565 z M 150.21636,98.701565 c 0.20398,-0.531224 0.24983,-1.086754 0.10198,-1.234507 -0.46718,-0.467159 -1.52252,0.470913 -1.52252,1.353337 0,1.15302 0.96338,1.07244 1.4205,-0.11883 z M 33.582729,93.789211 c 0,-0.323304 -0.280096,-0.587824 -0.622533,-0.587824 -0.342376,0 -0.45903,0.26452 -0.259229,0.587824 0.19986,0.323303 0.479957,0.587817 0.622533,0.587817 0.142547,0 0.259229,-0.26452 0.259229,-0.587817 z m 15.274352,-4.590313 c 0.0059,-0.423205 -0.255408,-0.605992 -0.578799,-0.406176 -0.323301,0.19983 -0.583795,0.942857 -0.578828,1.651209 0.0059,1.047044 0.115506,1.123005 0.578828,0.406167 0.313397,-0.48495 0.573862,-1.227992 0.578799,-1.6512 z M 33.582729,88.758031 c 0,-0.504033 -0.264519,-0.752941 -0.587822,-0.553128 -0.323301,0.1998 -0.587822,0.612205 -0.587822,0.916425 0,0.304222 0.264521,0.553126 0.587822,0.553126 0.323273,0 0.587822,-0.412389 0.587822,-0.916423 z m -2.351288,-3.859627 c 0,-0.28289 -0.513432,-0.514348 -1.140962,-0.514348 -0.627529,0 -1.28401,0.231455 -1.458827,0.514348 -0.174877,0.282889 0.338585,0.514347 1.140933,0.514347 0.802377,0 1.458856,-0.231455 1.458856,-0.514347 z M 165.73704,76.104165 c -0.71079,-2.039014 -2.096,-3.273504 -2.83918,-2.530309 -0.33309,0.333083 0.0462,1.532787 0.97872,3.096775 1.65772,2.779864 2.89562,2.402953 1.86046,-0.566466 z M 33.9843,67.227 c -0.187515,-0.468924 -0.326946,-0.329639 -0.355133,0.355145 -0.02645,0.619658 0.11345,0.966843 0.308725,0.771516 0.19545,-0.195333 0.216318,-0.70233 0.04644,-1.126661 z m 128.33147,0.144898 c 0,-0.693547 -1.14646,-1.435461 -1.56752,-1.014399 -0.42106,0.421069 0.32087,1.567528 1.01441,1.567528 0.30422,0 0.55311,-0.248913 0.55311,-0.553129 z M 135.8638,65.902343 c 0,-0.142576 -0.26451,-0.422703 -0.58782,-0.622515 -0.32333,-0.199802 -0.58785,-0.08315 -0.58785,0.259229 0,0.34238 0.26452,0.622513 0.58785,0.622513 0.32331,0 0.58782,-0.116654 0.58782,-0.25923 z M 43.14636,56.756419 c 0.4692,0 0.455974,-0.208529 -0.04526,-0.709586 -0.554228,-0.554231 -0.922821,-0.496342 -1.683581,0.264402 -0.845964,0.84595 -0.864716,1.106537 -0.14284,1.982228 0.773103,0.937729 0.844376,0.919239 1.019077,-0.264403 0.103457,-0.699955 0.486864,-1.272643 0.852342,-1.272643 z M 57.086619,42.207823 c -0.0059,-0.242476 -0.265401,-0.837649 -0.578799,-1.322599 -0.460793,-0.713005 -0.571539,-0.62864 -0.578828,0.440864 -0.0059,0.727432 0.255408,1.322602 0.578828,1.322602 0.323273,0 0.583767,-0.19839 0.578799,-0.440867 z m -1.763466,-3.855536 c 0.0059,-0.952909 -0.239537,-1.497565 -0.578799,-1.28791 -0.323302,0.199802 -0.583795,1.339636 -0.578828,2.532938 0.0059,1.61724 0.154009,1.945148 0.578828,1.287909 0.313397,-0.484953 0.573862,-1.624775 0.578799,-2.532937 z m 92.590997,-4.294622 c 1.7001,-1.098283 1.91016,-1.989771 0.46885,-1.989771 -1.0522,0 -4.87751,3.37055 -4.87751,4.29767 0,0.297063 0.6613,0.11292 1.46956,-0.409222 0.80825,-0.522135 2.13085,-1.376541 2.9391,-1.898677 z m -39.0902,-1.989771 c 0,-0.646605 -0.26451,-1.175644 -0.58779,-1.175644 -0.3233,0 -0.58782,0.529039 -0.58782,1.175644 0,0.646604 0.26452,1.175644 0.58782,1.175644 0.3233,0 0.58779,-0.52904 0.58779,-1.175644 z M 122.3439,21.227876 c 0,-0.142576 -0.26453,-0.4227 -0.58785,-0.622513 -0.32328,-0.1998 -0.58779,-0.08315 -0.58779,0.25923 0,0.342383 0.26451,0.622513 0.58779,0.622513 0.32332,0 0.58785,-0.116654 0.58785,-0.25923 z M 71.596859,16.218089 c 0.193982,-0.820021 1.044648,-2.092127 1.890113,-2.826903 l 1.537243,-1.335957 -2.645199,0.160314 c -2.301705,0.139496 -2.816579,0.427487 -3.964801,2.21769 -1.257117,1.959999 -1.738689,4.681377 -0.965263,5.454812 0.643225,0.643227 3.784986,-2.136495 4.147907,-3.669956 z m 21.029217,2.382943 c 0.554111,-0.896559 -0.324918,-2.404333 -1.40169,-2.404333 -1.584564,0 -1.890025,0.688066 -0.826978,1.862718 1.077625,1.190775 1.729548,1.349207 2.228668,0.541615 z M 74.730304,17.700945 c 0,-0.14257 -0.26452,-0.422701 -0.587822,-0.622514 -0.323332,-0.199812 -0.587822,-0.08316 -0.587822,0.259218 0,0.342383 0.26452,0.622514 0.587822,0.622514 0.323302,0 0.587822,-0.116647 0.587822,-0.259218 z m 32.682906,-2.444762 c -0.2845,-0.741483 -0.5676,-0.843193 -1.03786,-0.372935 -0.35563,0.355632 -0.47055,1.105397 -0.25541,1.666143 0.28451,0.741483 0.56761,0.843193 1.03786,0.372935 0.35561,-0.355632 0.47052,-1.105397 0.25541,-1.666143 z m -4.46745,-3.40526 c 0,-0.882661 -1.42682,-1.673148 -1.99483,-1.105163 -0.41453,0.414546 0.74577,1.924006 1.47896,1.924006 0.28362,0 0.51587,-0.36848 0.51587,-0.818843 z M 77.830301,170.45037 c 0.896752,-0.48635 1.892993,-0.72201 2.213914,-0.52367 1.05232,0.65037 -0.05496,1.45549 -1.968645,1.43148 l -1.875711,-0.0235 z m 27.760659,0.24253 c -4.71695,-0.89444 -4.24631,-1.49069 0.72655,-0.92049 2.51012,0.2878 4.81515,0.76766 5.12228,1.0663 0.6952,0.67601 -1.84952,0.61256 -5.84883,-0.14581 z M 93.204199,152.69132 c -0.66997,-0.56149 -1.372652,-1.61174 -1.56149,-2.33387 -0.316542,-1.21046 -0.143429,-1.31297 2.219175,-1.31297 1.409392,0 3.265234,-0.32018 4.124101,-0.71152 1.34332,-0.61204 1.672706,-0.55961 2.356195,0.37512 1.09397,1.49612 0.14813,3.08034 -2.252886,3.77386 -1.046941,0.30239 -2.300265,0.70291 -2.785218,0.89004 -0.484983,0.18714 -1.429907,-0.11918 -2.099877,-0.68066 z m 7.706461,-5.37425 c -0.81492,-1.3186 2.50269,-4.73864 4.59671,-4.73864 2.22282,0 1.42397,3.73469 -0.94448,4.41551 -0.72778,0.2092 -1.76388,0.50238 -2.30244,0.65154 -0.53859,0.14916 -1.14599,0.002 -1.34979,-0.32841 z M 83.773358,146.4336 c -0.527511,-1.37472 0.0059,-2.94553 1.071894,-3.15063 0.544617,-0.10487 1.99642,0.74461 3.226262,1.88777 l 2.236045,2.07845 -3.104494,0.0158 c -2.172619,0.0111 -3.202132,-0.23846 -3.429707,-0.8315 z m -4.450695,-18.36444 c 0.424321,-0.16979 0.931316,-0.14893 1.12665,0.0464 0.195451,0.19533 -0.151953,0.33425 -0.771517,0.30874 -0.684783,-0.0282 -0.824067,-0.16751 -0.355133,-0.35515 z m 3.609405,-1.92008 c 1.827803,-1.95665 3.554677,-7.36797 3.554677,-11.13888 0,-1.79772 -0.208089,-2.4116 -0.734777,-2.16614 -0.404128,0.18839 -1.165445,0.49736 -1.691841,0.68662 -0.526365,0.18925 -1.245742,0.97778 -1.598611,1.75226 -0.378822,0.83145 -0.974727,1.28031 -1.455035,1.09601 -1.67068,-0.64111 -11.663625,1.44555 -15.483762,3.2332 -2.121068,0.99258 -4.289721,1.7988 -4.819201,1.79161 -1.97667,-0.0268 2.021137,-2.33244 9.742974,-5.61892 7.714136,-3.28321 10.391401,-4.94879 7.954672,-4.94879 -0.646604,0 -1.504942,0.39678 -1.907423,0.88173 -0.763463,0.91993 -3.393644,1.17758 -4.408636,0.43186 -1.089852,-0.80069 -0.598756,-2.18847 1.167796,-3.29999 1.570984,-0.98846 2.140202,-1.0338 5.411579,-0.43102 2.010762,0.3705 4.879804,1.19823 6.375664,1.83943 1.495831,0.64119 3.6897,1.17422 4.875308,1.1845 1.997802,0.0174 2.074189,0.0803 1.043531,0.86054 -0.611628,0.463 -1.347758,0.9204 -1.63585,1.01644 -0.288033,0.096 -0.910007,1.83001 -1.381998,3.8533 -1.04121,4.46328 -3.394262,9.27285 -4.941909,10.10111 -1.791505,0.95879 -1.804848,0.73535 -0.06701,-1.12487 z m 2.119716,-15.03782 c -0.627589,-0.47468 -1.421119,-0.85366 -1.763466,-0.84221 -0.342348,0.0114 0.0388,0.39886 0.847139,0.8609 1.904102,1.0885 2.367659,1.07903 0.916327,-0.0185 z m -1.172471,8.71442 c -0.318981,-0.83777 -0.251588,-0.90528 0.329063,-0.32907 0.401747,0.39874 0.582355,0.87306 0.401365,1.05405 -0.181049,0.18098 -0.509671,-0.14526 -0.730428,-0.72498 z m 0.843966,-10.75222 c -1.131587,-0.61901 -3.578366,-1.43589 -5.437354,-1.8153 -1.859017,-0.37941 -3.379977,-0.91314 -3.379977,-1.18607 0,-0.81342 3.505859,-2.37557 4.889299,-2.17862 0.825242,0.11748 1.351931,0.67043 1.47655,1.55016 0.142253,1.00495 0.454092,1.26679 1.175644,0.98752 2.600553,-1.00646 3.99425,-0.93439 5.546806,0.28686 1.988513,1.56417 2.004767,1.98473 0.109923,2.84803 -1.889407,0.86087 -1.911422,0.85841 -4.381009,-0.49258 z M 20.062852,68.806771 c -0.415444,-0.500576 -0.623121,-1.042402 -0.46144,-1.204053 0.16165,-0.161651 0.633789,0.115654 1.049262,0.616231 0.415443,0.500578 0.623091,1.042403 0.461439,1.204054 -0.16165,0.161651 -0.633819,-0.115654 -1.049261,-0.616232 z M 55.626088,30.304428 c -0.19986,-0.323303 -0.09875,-0.587823 0.224547,-0.587823 0.323303,0 0.751295,0.26452 0.951097,0.587823 0.199858,0.323301 0.09875,0.587822 -0.224549,0.587822 -0.323302,0 -0.751295,-0.264521 -0.951095,-0.587822 z"
       id="path5790"
       inkscape:connector-curvature="0" />
  </g>
</svg>
